<svg width="885" height="115" viewBox="0 0 885 115" fill="none" xmlns="http://www.w3.org/2000/svg">
<g filter="url(#filter0_d_210_9041)">
<path d="M4.14204 0.689992H45.872V8.62H53.802V16.68H61.862V42.16H53.802V50.22H45.872V56.85H53.802V64.91H61.862V90.39H53.802V98.45H45.872V106.64H4.14204V0.689992ZM44.442 48.79V40.86H52.502V18.11H44.442V10.05H13.762V48.79H44.442ZM44.442 97.02V89.09H52.502V66.34H44.442V58.28H13.762V97.02H44.442ZM167.941 0.689992H225.661V10.05H177.561V48.79H217.601V58.28H177.561V97.02H225.661V106.64H167.941V0.689992ZM331.74 81.03H339.93V48.79H347.99V24.74H355.92V0.689992H365.41V24.74H373.47V48.79H381.4V81.03H389.46V106.64H380.1V82.33H341.36V106.64H331.74V81.03ZM372.04 72.97V50.22H363.98V26.17H357.35V50.22H349.29V72.97H372.04ZM495.54 0.689992H505.16V40.86H511.79V32.8H519.72V24.74H527.78V16.68H535.84V8.62H543.9V0.689992H553.26V10.05H545.2V18.11H537.27V26.17H529.21V34.23H521.15V42.16H513.09V56.85H521.15V64.91H529.21V72.97H537.27V89.09H545.2V97.02H553.26V106.64H543.9V98.45H535.84V90.39H527.78V74.4H519.72V66.34H511.79V58.28H505.16V106.64H495.54V0.689992ZM659.339 0.689992H717.059V10.05H668.959V48.79H708.999V58.28H668.959V97.02H717.059V106.64H659.339V0.689992ZM823.138 0.689992H864.868V8.62H872.798V16.68H880.858V42.16H872.798V50.22H864.868V56.85H872.798V81.03H880.858V106.64H871.498V82.33H863.438V58.28H832.758V106.64H823.138V0.689992ZM863.438 48.79V40.86H871.498V18.11H863.438V10.05H832.758V48.79H863.438Z" fill="white"/>
<path d="M4.14204 0.689992V-1.31001H2.14204V0.689992H4.14204ZM45.872 0.689992H47.872V-1.31001H45.872V0.689992ZM45.872 8.62H43.872V10.62H45.872V8.62ZM53.802 8.62H55.802V6.62H53.802V8.62ZM53.802 16.68H51.802V18.68H53.802V16.68ZM61.862 16.68H63.862V14.68H61.862V16.68ZM61.862 42.16V44.16H63.862V42.16H61.862ZM53.802 42.16V40.16H51.802V42.16H53.802ZM53.802 50.22V52.22H55.802V50.22H53.802ZM45.872 50.22V48.22H43.872V50.22H45.872ZM45.872 56.85H43.872V58.85H45.872V56.85ZM53.802 56.85H55.802V54.85H53.802V56.85ZM53.802 64.91H51.802V66.91H53.802V64.91ZM61.862 64.91H63.862V62.91H61.862V64.91ZM61.862 90.39V92.39H63.862V90.39H61.862ZM53.802 90.39V88.39H51.802V90.39H53.802ZM53.802 98.45V100.45H55.802V98.45H53.802ZM45.872 98.45V96.45H43.872V98.45H45.872ZM45.872 106.64V108.64H47.872V106.64H45.872ZM4.14204 106.64H2.14204V108.64H4.14204V106.64ZM44.442 48.79V50.79H46.442V48.79H44.442ZM44.442 40.86V38.86H42.442V40.86H44.442ZM52.502 40.86V42.86H54.502V40.86H52.502ZM52.502 18.11H54.502V16.11H52.502V18.11ZM44.442 18.11H42.442V20.11H44.442V18.11ZM44.442 10.05H46.442V8.05H44.442V10.05ZM13.762 10.05V8.05H11.762V10.05H13.762ZM13.762 48.79H11.762V50.79H13.762V48.79ZM44.442 97.02V99.02H46.442V97.02H44.442ZM44.442 89.09V87.09H42.442V89.09H44.442ZM52.502 89.09V91.09H54.502V89.09H52.502ZM52.502 66.34H54.502V64.34H52.502V66.34ZM44.442 66.34H42.442V68.34H44.442V66.34ZM44.442 58.28H46.442V56.28H44.442V58.28ZM13.762 58.28V56.28H11.762V58.28H13.762ZM13.762 97.02H11.762V99.02H13.762V97.02ZM4.14204 2.68999H45.872V-1.31001H4.14204V2.68999ZM43.872 0.689992V8.62H47.872V0.689992H43.872ZM45.872 10.62H53.802V6.62H45.872V10.62ZM51.802 8.62V16.68H55.802V8.62H51.802ZM53.802 18.68H61.862V14.68H53.802V18.68ZM59.862 16.68V42.16H63.862V16.68H59.862ZM61.862 40.16H53.802V44.16H61.862V40.16ZM51.802 42.16V50.22H55.802V42.16H51.802ZM53.802 48.22H45.872V52.22H53.802V48.22ZM43.872 50.22V56.85H47.872V50.22H43.872ZM45.872 58.85H53.802V54.85H45.872V58.85ZM51.802 56.85V64.91H55.802V56.85H51.802ZM53.802 66.91H61.862V62.91H53.802V66.91ZM59.862 64.91V90.39H63.862V64.91H59.862ZM61.862 88.39H53.802V92.39H61.862V88.39ZM51.802 90.39V98.45H55.802V90.39H51.802ZM53.802 96.45H45.872V100.45H53.802V96.45ZM43.872 98.45V106.64H47.872V98.45H43.872ZM45.872 104.64H4.14204V108.64H45.872V104.64ZM6.14204 106.64V0.689992H2.14204V106.64H6.14204ZM46.442 48.79V40.86H42.442V48.79H46.442ZM44.442 42.86H52.502V38.86H44.442V42.86ZM54.502 40.86V18.11H50.502V40.86H54.502ZM52.502 16.11H44.442V20.11H52.502V16.11ZM46.442 18.11V10.05H42.442V18.11H46.442ZM44.442 8.05H13.762V12.05H44.442V8.05ZM11.762 10.05V48.79H15.762V10.05H11.762ZM13.762 50.79H44.442V46.79H13.762V50.79ZM46.442 97.02V89.09H42.442V97.02H46.442ZM44.442 91.09H52.502V87.09H44.442V91.09ZM54.502 89.09V66.34H50.502V89.09H54.502ZM52.502 64.34H44.442V68.34H52.502V64.34ZM46.442 66.34V58.28H42.442V66.34H46.442ZM44.442 56.28H13.762V60.28H44.442V56.28ZM11.762 58.28V97.02H15.762V58.28H11.762ZM13.762 99.02H44.442V95.02H13.762V99.02ZM167.941 0.689992V-1.31001H165.941V0.689992H167.941ZM225.661 0.689992H227.661V-1.31001H225.661V0.689992ZM225.661 10.05V12.05H227.661V10.05H225.661ZM177.561 10.05V8.05H175.561V10.05H177.561ZM177.561 48.79H175.561V50.79H177.561V48.79ZM217.601 48.79H219.601V46.79H217.601V48.79ZM217.601 58.28V60.28H219.601V58.28H217.601ZM177.561 58.28V56.28H175.561V58.28H177.561ZM177.561 97.02H175.561V99.02H177.561V97.02ZM225.661 97.02H227.661V95.02H225.661V97.02ZM225.661 106.64V108.64H227.661V106.64H225.661ZM167.941 106.64H165.941V108.64H167.941V106.64ZM167.941 2.68999H225.661V-1.31001H167.941V2.68999ZM223.661 0.689992V10.05H227.661V0.689992H223.661ZM225.661 8.05H177.561V12.05H225.661V8.05ZM175.561 10.05V48.79H179.561V10.05H175.561ZM177.561 50.79H217.601V46.79H177.561V50.79ZM215.601 48.79V58.28H219.601V48.79H215.601ZM217.601 56.28H177.561V60.28H217.601V56.28ZM175.561 58.28V97.02H179.561V58.28H175.561ZM177.561 99.02H225.661V95.02H177.561V99.02ZM223.661 97.02V106.64H227.661V97.02H223.661ZM225.661 104.64H167.941V108.64H225.661V104.64ZM169.941 106.64V0.689992H165.941V106.64H169.941ZM331.74 81.03V79.03H329.74V81.03H331.74ZM339.93 81.03V83.03H341.93V81.03H339.93ZM339.93 48.79V46.79H337.93V48.79H339.93ZM347.99 48.79V50.79H349.99V48.79H347.99ZM347.99 24.74V22.74H345.99V24.74H347.99ZM355.92 24.74V26.74H357.92V24.74H355.92ZM355.92 0.689992V-1.31001H353.92V0.689992H355.92ZM365.41 0.689992H367.41V-1.31001H365.41V0.689992ZM365.41 24.74H363.41V26.74H365.41V24.74ZM373.47 24.74H375.47V22.74H373.47V24.74ZM373.47 48.79H371.47V50.79H373.47V48.79ZM381.4 48.79H383.4V46.79H381.4V48.79ZM381.4 81.03H379.4V83.03H381.4V81.03ZM389.46 81.03H391.46V79.03H389.46V81.03ZM389.46 106.64V108.64H391.46V106.64H389.46ZM380.1 106.64H378.1V108.64H380.1V106.64ZM380.1 82.33H382.1V80.33H380.1V82.33ZM341.36 82.33V80.33H339.36V82.33H341.36ZM341.36 106.64V108.64H343.36V106.64H341.36ZM331.74 106.64H329.74V108.64H331.74V106.64ZM372.04 72.97V74.97H374.04V72.97H372.04ZM372.04 50.22H374.04V48.22H372.04V50.22ZM363.98 50.22H361.98V52.22H363.98V50.22ZM363.98 26.17H365.98V24.17H363.98V26.17ZM357.35 26.17V24.17H355.35V26.17H357.35ZM357.35 50.22V52.22H359.35V50.22H357.35ZM349.29 50.22V48.22H347.29V50.22H349.29ZM349.29 72.97H347.29V74.97H349.29V72.97ZM331.74 83.03H339.93V79.03H331.74V83.03ZM341.93 81.03V48.79H337.93V81.03H341.93ZM339.93 50.79H347.99V46.79H339.93V50.79ZM349.99 48.79V24.74H345.99V48.79H349.99ZM347.99 26.74H355.92V22.74H347.99V26.74ZM357.92 24.74V0.689992H353.92V24.74H357.92ZM355.92 2.68999H365.41V-1.31001H355.92V2.68999ZM363.41 0.689992V24.74H367.41V0.689992H363.41ZM365.41 26.74H373.47V22.74H365.41V26.74ZM371.47 24.74V48.79H375.47V24.74H371.47ZM373.47 50.79H381.4V46.79H373.47V50.79ZM379.4 48.79V81.03H383.4V48.79H379.4ZM381.4 83.03H389.46V79.03H381.4V83.03ZM387.46 81.03V106.64H391.46V81.03H387.46ZM389.46 104.64H380.1V108.64H389.46V104.64ZM382.1 106.64V82.33H378.1V106.64H382.1ZM380.1 80.33H341.36V84.33H380.1V80.33ZM339.36 82.33V106.64H343.36V82.33H339.36ZM341.36 104.64H331.74V108.64H341.36V104.64ZM333.74 106.64V81.03H329.74V106.64H333.74ZM374.04 72.97V50.22H370.04V72.97H374.04ZM372.04 48.22H363.98V52.22H372.04V48.22ZM365.98 50.22V26.17H361.98V50.22H365.98ZM363.98 24.17H357.35V28.17H363.98V24.17ZM355.35 26.17V50.22H359.35V26.17H355.35ZM357.35 48.22H349.29V52.22H357.35V48.22ZM347.29 50.22V72.97H351.29V50.22H347.29ZM349.29 74.97H372.04V70.97H349.29V74.97ZM495.54 0.689992V-1.31001H493.54V0.689992H495.54ZM505.16 0.689992H507.16V-1.31001H505.16V0.689992ZM505.16 40.86H503.16V42.86H505.16V40.86ZM511.79 40.86V42.86H513.79V40.86H511.79ZM511.79 32.8V30.8H509.79V32.8H511.79ZM519.72 32.8V34.8H521.72V32.8H519.72ZM519.72 24.74V22.74H517.72V24.74H519.72ZM527.78 24.74V26.74H529.78V24.74H527.78ZM527.78 16.68V14.68H525.78V16.68H527.78ZM535.84 16.68V18.68H537.84V16.68H535.84ZM535.84 8.62V6.62H533.84V8.62H535.84ZM543.9 8.62V10.62H545.9V8.62H543.9ZM543.9 0.689992V-1.31001H541.9V0.689992H543.9ZM553.26 0.689992H555.26V-1.31001H553.26V0.689992ZM553.26 10.05V12.05H555.26V10.05H553.26ZM545.2 10.05V8.05H543.2V10.05H545.2ZM545.2 18.11V20.11H547.2V18.11H545.2ZM537.27 18.11V16.11H535.27V18.11H537.27ZM537.27 26.17V28.17H539.27V26.17H537.27ZM529.21 26.17V24.17H527.21V26.17H529.21ZM529.21 34.23V36.23H531.21V34.23H529.21ZM521.15 34.23V32.23H519.15V34.23H521.15ZM521.15 42.16V44.16H523.15V42.16H521.15ZM513.09 42.16V40.16H511.09V42.16H513.09ZM513.09 56.85H511.09V58.85H513.09V56.85ZM521.15 56.85H523.15V54.85H521.15V56.85ZM521.15 64.91H519.15V66.91H521.15V64.91ZM529.21 64.91H531.21V62.91H529.21V64.91ZM529.21 72.97H527.21V74.97H529.21V72.97ZM537.27 72.97H539.27V70.97H537.27V72.97ZM537.27 89.09H535.27V91.09H537.27V89.09ZM545.2 89.09H547.2V87.09H545.2V89.09ZM545.2 97.02H543.2V99.02H545.2V97.02ZM553.26 97.02H555.26V95.02H553.26V97.02ZM553.26 106.64V108.64H555.26V106.64H553.26ZM543.9 106.64H541.9V108.64H543.9V106.64ZM543.9 98.45H545.9V96.45H543.9V98.45ZM535.84 98.45H533.84V100.45H535.84V98.45ZM535.84 90.39H537.84V88.39H535.84V90.39ZM527.78 90.39H525.78V92.39H527.78V90.39ZM527.78 74.4H529.78V72.4H527.78V74.4ZM519.72 74.4H517.72V76.4H519.72V74.4ZM519.72 66.34H521.72V64.34H519.72V66.34ZM511.79 66.34H509.79V68.34H511.79V66.34ZM511.79 58.28H513.79V56.28H511.79V58.28ZM505.16 58.28V56.28H503.16V58.28H505.16ZM505.16 106.64V108.64H507.16V106.64H505.16ZM495.54 106.64H493.54V108.64H495.54V106.64ZM495.54 2.68999H505.16V-1.31001H495.54V2.68999ZM503.16 0.689992V40.86H507.16V0.689992H503.16ZM505.16 42.86H511.79V38.86H505.16V42.86ZM513.79 40.86V32.8H509.79V40.86H513.79ZM511.79 34.8H519.72V30.8H511.79V34.8ZM521.72 32.8V24.74H517.72V32.8H521.72ZM519.72 26.74H527.78V22.74H519.72V26.74ZM529.78 24.74V16.68H525.78V24.74H529.78ZM527.78 18.68H535.84V14.68H527.78V18.68ZM537.84 16.68V8.62H533.84V16.68H537.84ZM535.84 10.62H543.9V6.62H535.84V10.62ZM545.9 8.62V0.689992H541.9V8.62H545.9ZM543.9 2.68999H553.26V-1.31001H543.9V2.68999ZM551.26 0.689992V10.05H555.26V0.689992H551.26ZM553.26 8.05H545.2V12.05H553.26V8.05ZM543.2 10.05V18.11H547.2V10.05H543.2ZM545.2 16.11H537.27V20.11H545.2V16.11ZM535.27 18.11V26.17H539.27V18.11H535.27ZM537.27 24.17H529.21V28.17H537.27V24.17ZM527.21 26.17V34.23H531.21V26.17H527.21ZM529.21 32.23H521.15V36.23H529.21V32.23ZM519.15 34.23V42.16H523.15V34.23H519.15ZM521.15 40.16H513.09V44.16H521.15V40.16ZM511.09 42.16V56.85H515.09V42.16H511.09ZM513.09 58.85H521.15V54.85H513.09V58.85ZM519.15 56.85V64.91H523.15V56.85H519.15ZM521.15 66.91H529.21V62.91H521.15V66.91ZM527.21 64.91V72.97H531.21V64.91H527.21ZM529.21 74.97H537.27V70.97H529.21V74.97ZM535.27 72.97V89.09H539.27V72.97H535.27ZM537.27 91.09H545.2V87.09H537.27V91.09ZM543.2 89.09V97.02H547.2V89.09H543.2ZM545.2 99.02H553.26V95.02H545.2V99.02ZM551.26 97.02V106.64H555.26V97.02H551.26ZM553.26 104.64H543.9V108.64H553.26V104.64ZM545.9 106.64V98.45H541.9V106.64H545.9ZM543.9 96.45H535.84V100.45H543.9V96.45ZM537.84 98.45V90.39H533.84V98.45H537.84ZM535.84 88.39H527.78V92.39H535.84V88.39ZM529.78 90.39V74.4H525.78V90.39H529.78ZM527.78 72.4H519.72V76.4H527.78V72.4ZM521.72 74.4V66.34H517.72V74.4H521.72ZM519.72 64.34H511.79V68.34H519.72V64.34ZM513.79 66.34V58.28H509.79V66.34H513.79ZM511.79 56.28H505.16V60.28H511.79V56.28ZM503.16 58.28V106.64H507.16V58.28H503.16ZM505.16 104.64H495.54V108.64H505.16V104.64ZM497.54 106.64V0.689992H493.54V106.64H497.54ZM659.339 0.689992V-1.31001H657.339V0.689992H659.339ZM717.059 0.689992H719.059V-1.31001H717.059V0.689992ZM717.059 10.05V12.05H719.059V10.05H717.059ZM668.959 10.05V8.05H666.959V10.05H668.959ZM668.959 48.79H666.959V50.79H668.959V48.79ZM708.999 48.79H710.999V46.79H708.999V48.79ZM708.999 58.28V60.28H710.999V58.28H708.999ZM668.959 58.28V56.28H666.959V58.28H668.959ZM668.959 97.02H666.959V99.02H668.959V97.02ZM717.059 97.02H719.059V95.02H717.059V97.02ZM717.059 106.64V108.64H719.059V106.64H717.059ZM659.339 106.64H657.339V108.64H659.339V106.64ZM659.339 2.68999H717.059V-1.31001H659.339V2.68999ZM715.059 0.689992V10.05H719.059V0.689992H715.059ZM717.059 8.05H668.959V12.05H717.059V8.05ZM666.959 10.05V48.79H670.959V10.05H666.959ZM668.959 50.79H708.999V46.79H668.959V50.79ZM706.999 48.79V58.28H710.999V48.79H706.999ZM708.999 56.28H668.959V60.28H708.999V56.28ZM666.959 58.28V97.02H670.959V58.28H666.959ZM668.959 99.02H717.059V95.02H668.959V99.02ZM715.059 97.02V106.64H719.059V97.02H715.059ZM717.059 104.64H659.339V108.64H717.059V104.64ZM661.339 106.64V0.689992H657.339V106.64H661.339ZM823.138 0.689992V-1.31001H821.138V0.689992H823.138ZM864.868 0.689992H866.868V-1.31001H864.868V0.689992ZM864.868 8.62H862.868V10.62H864.868V8.62ZM872.798 8.62H874.798V6.62H872.798V8.62ZM872.798 16.68H870.798V18.68H872.798V16.68ZM880.858 16.68H882.858V14.68H880.858V16.68ZM880.858 42.16V44.16H882.858V42.16H880.858ZM872.798 42.16V40.16H870.798V42.16H872.798ZM872.798 50.22V52.22H874.798V50.22H872.798ZM864.868 50.22V48.22H862.868V50.22H864.868ZM864.868 56.85H862.868V58.85H864.868V56.85ZM872.798 56.85H874.798V54.85H872.798V56.85ZM872.798 81.03H870.798V83.03H872.798V81.03ZM880.858 81.03H882.858V79.03H880.858V81.03ZM880.858 106.64V108.64H882.858V106.64H880.858ZM871.498 106.64H869.498V108.64H871.498V106.64ZM871.498 82.33H873.498V80.33H871.498V82.33ZM863.438 82.33H861.438V84.33H863.438V82.33ZM863.438 58.28H865.438V56.28H863.438V58.28ZM832.758 58.28V56.28H830.758V58.28H832.758ZM832.758 106.64V108.64H834.758V106.64H832.758ZM823.138 106.64H821.138V108.64H823.138V106.64ZM863.438 48.79V50.79H865.438V48.79H863.438ZM863.438 40.86V38.86H861.438V40.86H863.438ZM871.498 40.86V42.86H873.498V40.86H871.498ZM871.498 18.11H873.498V16.11H871.498V18.11ZM863.438 18.11H861.438V20.11H863.438V18.11ZM863.438 10.05H865.438V8.05H863.438V10.05ZM832.758 10.05V8.05H830.758V10.05H832.758ZM832.758 48.79H830.758V50.79H832.758V48.79ZM823.138 2.68999H864.868V-1.31001H823.138V2.68999ZM862.868 0.689992V8.62H866.868V0.689992H862.868ZM864.868 10.62H872.798V6.62H864.868V10.62ZM870.798 8.62V16.68H874.798V8.62H870.798ZM872.798 18.68H880.858V14.68H872.798V18.68ZM878.858 16.68V42.16H882.858V16.68H878.858ZM880.858 40.16H872.798V44.16H880.858V40.16ZM870.798 42.16V50.22H874.798V42.16H870.798ZM872.798 48.22H864.868V52.22H872.798V48.22ZM862.868 50.22V56.85H866.868V50.22H862.868ZM864.868 58.85H872.798V54.85H864.868V58.85ZM870.798 56.85V81.03H874.798V56.85H870.798ZM872.798 83.03H880.858V79.03H872.798V83.03ZM878.858 81.03V106.64H882.858V81.03H878.858ZM880.858 104.64H871.498V108.64H880.858V104.64ZM873.498 106.64V82.33H869.498V106.64H873.498ZM871.498 80.33H863.438V84.33H871.498V80.33ZM865.438 82.33V58.28H861.438V82.33H865.438ZM863.438 56.28H832.758V60.28H863.438V56.28ZM830.758 58.28V106.64H834.758V58.28H830.758ZM832.758 104.64H823.138V108.64H832.758V104.64ZM825.138 106.64V0.689992H821.138V106.64H825.138ZM865.438 48.79V40.86H861.438V48.79H865.438ZM863.438 42.86H871.498V38.86H863.438V42.86ZM873.498 40.86V18.11H869.498V40.86H873.498ZM871.498 16.11H863.438V20.11H871.498V16.11ZM865.438 18.11V10.05H861.438V18.11H865.438ZM863.438 8.05H832.758V12.05H863.438V8.05ZM830.758 10.05V48.79H834.758V10.05H830.758ZM832.758 50.79H863.438V46.79H832.758V50.79Z" fill="black"/>
</g>
<defs>
<filter id="filter0_d_210_9041" x="0.14209" y="0.689941" width="884.716" height="113.95" filterUnits="userSpaceOnUse" color-interpolation-filters="sRGB">
<feFlood flood-opacity="0" result="BackgroundImageFix"/>
<feColorMatrix in="SourceAlpha" type="matrix" values="0 0 0 0 0 0 0 0 0 0 0 0 0 0 0 0 0 0 127 0" result="hardAlpha"/>
<feOffset dy="4"/>
<feGaussianBlur stdDeviation="2"/>
<feColorMatrix type="matrix" values="0 0 0 0 0.0125 0 0 0 0 0.0125 0 0 0 0 0.0125 0 0 0 0.3 0"/>
<feBlend mode="normal" in2="BackgroundImageFix" result="effect1_dropShadow_210_9041"/>
<feBlend mode="normal" in="SourceGraphic" in2="effect1_dropShadow_210_9041" result="shape"/>
</filter>
</defs>
</svg>
