<svg width="271" height="136" viewBox="0 0 271 136" fill="none" xmlns="http://www.w3.org/2000/svg">
<rect x="0.316406" y="0.309082" width="15.3176" height="15.3176" fill="black"/>
<rect x="15.2603" y="15.627" width="15.3176" height="15.3176" fill="black"/>
<rect x="30.2046" y="30.5706" width="15.3176" height="15.3176" fill="black"/>
<rect x="45.1484" y="45.5149" width="15.3176" height="15.3176" fill="black"/>
<rect x="60.0923" y="60.4585" width="15.3176" height="15.3176" fill="black"/>
<rect x="45.1484" y="75.4028" width="15.3176" height="15.3176" fill="black"/>
<rect x="30.2046" y="90.3464" width="15.3176" height="15.3176" fill="black"/>
<rect x="15.2603" y="105.291" width="15.3176" height="15.3176" fill="black"/>
<rect x="0.316406" y="120.234" width="15.3176" height="15.3176" fill="black"/>
<rect x="119.868" y="120.234" width="15.3176" height="15.3176" fill="black"/>
<rect x="104.924" y="105.291" width="15.3176" height="15.3176" fill="black"/>
<rect x="89.9802" y="90.3464" width="15.3176" height="15.3176" fill="black"/>
<rect x="75.0361" y="75.4028" width="15.3176" height="15.3176" fill="black"/>
<rect x="75.0361" y="45.5149" width="15.3176" height="15.3176" fill="black"/>
<rect x="89.9802" y="30.5706" width="15.3176" height="15.3176" fill="black"/>
<rect x="104.924" y="15.627" width="15.3176" height="15.3176" fill="black"/>
<rect x="119.868" y="0.682617" width="15.3176" height="15.3176" fill="black"/>
<rect x="135.186" y="0.682617" width="15.3176" height="15.3176" fill="black"/>
<rect x="150.13" y="15.627" width="15.3176" height="15.3176" fill="black"/>
<rect x="165.074" y="30.5706" width="15.3176" height="15.3176" fill="black"/>
<rect x="180.018" y="45.5149" width="15.3176" height="15.3176" fill="black"/>
<rect x="180.018" y="75.4028" width="15.3176" height="15.3176" fill="black"/>
<rect x="165.074" y="90.3464" width="15.3176" height="15.3176" fill="black"/>
<rect x="150.13" y="105.291" width="15.3176" height="15.3176" fill="black"/>
<rect x="135.186" y="120.234" width="15.3176" height="15.3176" fill="black"/>
<rect x="254.737" y="120.234" width="15.3176" height="15.3176" fill="black"/>
<rect x="239.793" y="105.291" width="15.3176" height="15.3176" fill="black"/>
<rect x="224.85" y="90.3464" width="15.3176" height="15.3176" fill="black"/>
<rect x="209.906" y="75.4028" width="15.3176" height="15.3176" fill="black"/>
<rect x="194.961" y="60.4585" width="15.3176" height="15.3176" fill="black"/>
<rect x="209.906" y="45.5149" width="15.3176" height="15.3176" fill="black"/>
<rect x="224.85" y="30.5706" width="15.3176" height="15.3176" fill="black"/>
<rect x="239.793" y="15.627" width="15.3176" height="15.3176" fill="black"/>
<rect x="254.737" y="0.682617" width="15.3176" height="15.3176" fill="black"/>
</svg>
