<svg width="193" height="68" viewBox="0 0 193 68" fill="none" xmlns="http://www.w3.org/2000/svg">
<path d="M33.9106 0.799988V11.84H11.4466V0.799988H33.9106ZM11.4466 68H0.118652V0.799988H11.4466V68ZM33.9106 56.864V68H11.4466V56.864H33.9106Z" fill="white"/>
<path d="M79.2678 0.799988V12.128H56.9958V0.799988H79.2678ZM56.9958 68H45.6678V0.799988H56.9958V68ZM90.5958 68H79.2678V0.799988H90.5958V68ZM79.2678 56.672V68H56.9958V56.672H79.2678Z" fill="white"/>
<path d="M136.072 0.799988V11.84H113.608V0.799988H136.072ZM113.608 68H102.28V0.799988H113.608V68ZM136.072 56.864V68H113.608V56.864H136.072Z" fill="white"/>
<path d="M181.429 0.799988V12.128H159.157V0.799988H181.429ZM159.157 68H147.829V0.799988H159.157V68ZM192.757 68H181.429V0.799988H192.757V68ZM181.429 56.672V68H159.157V56.672H181.429Z" fill="white"/>
</svg>
