<svg width="227" height="284" viewBox="0 0 227 284" fill="none" xmlns="http://www.w3.org/2000/svg">
<path d="M22.5501 83.6914C26.0988 74.9215 35.6979 54.6727 57.7048 39.3321C87.9484 18.2493 120.061 21.4688 128.12 22.516L168.691 0C167.288 9.45246 165.883 18.9049 164.479 28.3574C166.886 29.4605 170.646 31.4728 174.347 34.979C180.194 40.5146 181.013 45.1459 186.747 53.4591C190.09 58.305 193.278 62.9265 197.828 66.2394C200.959 68.5193 209.748 73.8297 226.61 70.8064C222.34 71.9718 217.724 72.9921 212.812 73.948C204.944 75.4795 195.137 76.931 187.384 76.6124C187.384 76.6124 191.207 92.0478 185.685 93.3223L209.475 136.23L205.652 142.603L209.05 166.818L192.482 169.792L191.207 176.164L150.424 182.537C150.424 182.537 141.078 171.916 148.3 154.073L130.457 131.557C130.457 131.557 95.196 171.137 151.698 219.072C151.698 219.072 172.94 250.863 156.796 284C156.796 284 141.078 246.686 112.402 256.032C83.7256 265.378 30.6219 222.046 30.197 208.026C28.4574 207.725 24.5553 207.314 20.4614 209.265C12.3471 213.133 11.1562 222.623 11.0797 223.32C7.57273 216.588 0.400191 200.592 1.83966 179.386C3.48091 155.213 15.3174 138.878 19.9657 133.079C18.4703 132.265 16.2839 131.415 13.6641 131.522C8.29636 131.74 3.33152 135.895 0.883789 142.036C1.79646 133.674 4.8347 116.759 17.1335 100.226C24.5935 90.1998 32.9117 83.7417 38.9414 79.834C37.7448 79.2428 35.1966 78.197 31.9318 78.4887C26.4139 78.9794 23.1711 82.9076 22.5501 83.6914Z" fill="#2A2B2B"/>
<path d="M205.369 164.409H197.722C197.722 164.409 188.163 147.203 174.993 144.017C174.993 144.017 188.163 159.099 185.402 167.808C185.402 167.808 181.179 171.15 174.736 173.614C171.904 174.697 168.647 175.61 165.126 175.994C161.414 176.401 157.414 176.219 153.327 175.029C153.327 175.029 152.794 169.824 154.07 163.566C154.718 160.388 155.833 156.939 157.72 153.761C159.159 151.336 161.047 149.07 163.526 147.203L155.879 151.239L154.54 150.049L132.938 130.847L136.7 129.235L146.307 125.117C146.038 125.208 141.664 126.688 135.403 127.724C131.989 128.291 128.014 128.723 123.838 128.726C123.585 128.726 123.332 128.725 123.078 128.722C121.725 128.706 120.354 128.644 118.976 128.525C111.883 127.915 104.614 125.813 98.8078 120.863L95.9813 115.21L90.5944 104.437L100.082 89.2588L100.261 88.9756L100.295 88.9225L101.923 86.314C101.866 86.3473 99.462 87.7598 95.9756 90.6551C93.7265 92.5272 91.5908 94.5314 89.5798 96.6572C87.1541 99.2178 84.9091 101.944 82.8611 104.815C81.0104 107.411 79.328 110.122 77.824 112.933C72.9463 122.049 69.2064 133.634 68.9543 147.877C68.6994 162.363 72.0527 179.597 81.4868 199.79C81.501 199.821 81.5158 199.852 81.53 199.883C81.53 199.883 81.5109 199.821 81.4755 199.702C80.6371 196.87 70.5234 161.454 81.1406 134.014C82.9914 129.23 85.4724 124.688 88.7429 120.605C88.9789 120.312 89.218 120.021 89.4601 119.732C89.4601 119.732 101.285 135.805 109.002 135.875C109.002 135.875 99.9541 144.412 97.6254 156.751C97.1927 159.018 97.0189 161.326 97.1071 163.631C97.1071 163.631 97.7776 161.345 99.1958 158.157C101.848 152.193 107.119 143.07 115.516 139.84C115.516 139.84 109.923 151.656 112.287 169.872C114.439 186.425 123.168 208.263 148.653 231.32L126.208 221.195C126.483 221.396 144.068 234.302 148.292 254.733L148.296 254.755L116.859 244.559C116.859 244.559 116.412 244.755 115.571 245.04C108.238 247.518 70.9361 256.662 38.4778 200.447L38.4402 200.432L26.0161 195.349C26.0161 195.349 25.478 191.819 25.0864 185.758C24.1029 170.544 24.0427 139.381 35.7334 108.099C48.1044 74.998 73.631 41.7586 125.142 27.1197L112.751 37.882L87.7566 49.2108L114.167 50.4145C127.072 33.923 143.112 20.1467 161.363 9.87866C160.349 12.8997 159.334 15.9207 158.319 18.9417L158.182 19.0408C153.359 22.6518 149.078 26.934 145.468 31.7574C138.869 40.5783 135.98 49.2816 134.634 54.8044L142.494 59.2651L137.75 52.4678L144.256 50.0392L153.114 46.7326L184.552 76.8955C184.552 76.8955 182.64 87.7287 176.48 89.428C170.32 91.1273 164.372 69.0362 142.919 74.7714L155.663 79.8693L153.752 91.7646L163.948 98.9867L178.392 97.4998L204.519 133.398L193.686 129.15L193.201 129.555L185.826 135.734L194.96 133.823L201.97 139.133L205.369 164.409Z" fill="#336664"/>
<path d="M159.947 81.6045C163.369 86.0061 167.753 89.5664 172.763 92.0128C172.105 92.9147 171.259 93.6634 170.285 94.2078C168.876 94.9647 167.274 95.2851 165.682 95.1282C163.532 94.9094 162.095 93.8637 161.009 93.0749C160.073 92.393 158.909 91.5455 158.248 90.3135C156.326 86.7237 159.751 81.8736 159.947 81.6045Z" fill="#0CEFD9"/>
<path d="M194.818 142.885C196.422 142.885 197.721 141.569 197.721 139.946C197.721 138.323 196.422 137.008 194.818 137.008C193.215 137.008 191.915 138.323 191.915 139.946C191.915 141.569 193.215 142.885 194.818 142.885Z" stroke="#BF3500" stroke-miterlimit="10"/>
<path d="M147.871 254.735L147.875 254.756L116.438 244.56C116.438 244.56 115.991 244.756 115.15 245.041C107.817 247.519 70.5151 256.663 38.0567 200.449L38.0192 200.433L25.595 195.351C25.595 195.351 25.0569 191.82 24.6653 185.759L50.1997 176.201L65.4228 193.123C49.5851 125.9 83.4611 98.1858 95.5496 90.6557C93.3005 92.5278 91.1648 94.532 89.1538 96.6578C86.728 99.2184 84.4831 101.944 82.4351 104.816C80.5844 107.412 78.902 110.123 77.398 112.934C72.5203 122.05 68.7804 133.634 68.5283 147.877C68.2734 162.363 71.6267 179.598 81.0608 199.791C81.0749 199.822 81.0898 199.852 81.104 199.884C81.104 199.884 81.0848 199.822 81.0494 199.702C80.1353 196.616 68.1955 154.792 84.1203 126.806C85.3535 124.632 86.7568 122.558 88.3169 120.605C88.5529 120.312 88.792 120.021 89.0341 119.732C89.0341 119.732 100.859 135.805 108.576 135.876C108.576 135.876 96.0438 147.7 96.6811 163.631C96.6811 163.631 102.204 144.797 115.09 139.841C115.09 139.841 94.6985 182.89 148.227 231.321L142.775 228.863L125.782 221.198C126.062 221.397 143.647 234.303 147.871 254.735Z" fill="#2C5451"/>
<path d="M201.869 164.409H197.296C197.296 164.409 187.737 147.203 174.568 144.017C174.568 144.017 187.737 159.099 184.976 167.808C184.976 167.808 180.753 171.15 174.311 173.614C171.478 174.697 168.221 175.61 164.7 175.994C160.988 176.4 156.989 176.219 152.901 175.029C152.901 175.029 152.369 169.824 153.645 163.566C154.293 160.388 155.407 156.939 157.294 153.761C158.733 151.336 160.622 149.07 163.1 147.203L155.453 151.239L154.115 150.049L132.512 130.847L136.274 129.234L145.881 125.116C145.612 125.208 141.238 126.688 134.977 127.724C131.564 128.291 127.589 128.723 123.412 128.726C123.159 128.726 122.906 128.725 122.652 128.722C121.3 128.706 119.928 128.644 118.55 128.525C111.457 127.915 104.188 125.812 98.3822 120.863L95.5557 115.209L90.1688 104.436L99.6567 89.2587L99.8358 88.9755V102.633L111.094 116.652L157.683 120.476L148.196 131.309L160.586 139.947L169.933 134.495L191.882 147.24L201.869 164.409Z" fill="#2C5451"/>
<path d="M140.759 46.839C144.492 37.9744 150.323 30.15 157.752 24.0398C156.572 28.6657 155.392 33.2917 154.212 37.9176C150.816 42.2743 146.093 45.4062 140.759 46.839Z" fill="#2C5451"/>
<path d="M204.519 133.396L193.686 129.148L193.202 129.554L175.029 103.058H161.859L146.424 95.1986L148.619 81.6041L142.883 74.736L158.106 64.4693L144.256 50.0393L153.115 46.7327L184.552 76.8956C184.552 76.8956 182.64 87.7287 176.48 89.428C170.32 91.1274 164.373 69.0362 142.919 74.7714L155.664 79.8694L153.752 91.7646L163.948 98.9867L178.392 97.4998L204.519 133.396Z" fill="#121F22"/>
<path d="M161.363 9.87866C160.349 12.8997 159.334 15.9207 158.318 18.9417L158.182 19.0408L157.749 18.9403L142.88 28.3573L122.771 58.0954L98.1313 55.7588L82.4126 55.0508C76.6465 59.315 71.1236 63.8985 65.8697 68.7799C65.8697 68.7799 45.0743 84.7577 35.7429 108.085L35.738 108.096C48.109 74.9958 73.6356 41.7565 125.146 27.1175L112.755 37.8799L87.7612 49.2087L114.171 50.4124C127.076 33.9221 143.114 20.1466 161.363 9.87866Z" fill="#121F22"/>
<path d="M148.229 231.32L142.777 228.862C96.6096 184.059 106.631 153.188 106.631 153.188L95.8683 171.031C91.3368 160.835 98.5589 139.947 98.5589 139.947L84.1196 126.804C85.3529 124.63 86.7561 122.557 88.3162 120.604C88.5523 120.311 88.7913 120.02 89.0335 119.731C89.0335 119.731 100.858 135.804 108.576 135.874C108.576 135.874 96.0432 147.699 96.6804 163.63C96.6804 163.63 102.203 144.796 115.09 139.84C115.092 139.84 94.7 182.889 148.229 231.32Z" fill="#2A4744"/>
</svg>
