<svg width="796" height="247" viewBox="0 0 796 247" fill="none" xmlns="http://www.w3.org/2000/svg">
<g filter="url(#filter0_d_2_689)">
<path d="M80.178 166V81.64H115.86C121.56 81.64 126.31 82.666 130.11 84.718C133.91 86.694 136.912 89.582 139.116 93.382C141.396 97.106 142.992 101.552 143.904 106.72C144.816 111.888 145.272 117.588 145.272 123.82C145.272 133.32 144.17 141.186 141.966 147.418C139.838 153.65 136.608 158.324 132.276 161.44C127.944 164.48 122.472 166 115.86 166H80.178ZM97.05 150.838H114.15C117.646 150.838 120.42 149.85 122.472 147.874C124.524 145.822 126.006 142.782 126.918 138.754C127.906 134.726 128.4 129.748 128.4 123.82C128.4 118.348 128.096 113.864 127.488 110.368C126.88 106.796 125.968 104.022 124.752 102.046C123.612 100.07 122.13 98.702 120.306 97.942C118.558 97.182 116.506 96.802 114.15 96.802H97.05V150.838ZM151.99 166L178.438 81.64H199.756L226.204 166H208.648L203.29 148.33H174.562L169.318 166H151.99ZM178.552 133.168H199.3L188.926 96.118L178.552 133.168ZM236.188 166V81.64H271.072C274.416 81.64 277.532 82.058 280.42 82.894C283.308 83.654 285.854 85.022 288.058 86.998C290.262 88.974 291.972 91.71 293.188 95.206C294.48 98.702 295.126 103.186 295.126 108.658C295.126 112.534 294.746 115.84 293.986 118.576C293.226 121.312 292.2 123.554 290.908 125.302C289.692 127.05 288.286 128.456 286.69 129.52C285.094 130.584 283.46 131.458 281.788 132.142L297.52 166H280.306L266.74 134.764C265.828 134.764 264.764 134.764 263.548 134.764C262.408 134.688 261.23 134.65 260.014 134.65C258.798 134.65 257.582 134.65 256.366 134.65C255.15 134.65 254.048 134.612 253.06 134.536V166H236.188ZM253.06 121.198H268.108C269.628 121.198 270.996 121.008 272.212 120.628C273.428 120.248 274.492 119.602 275.404 118.69C276.316 117.702 277 116.41 277.456 114.814C277.988 113.218 278.254 111.166 278.254 108.658C278.254 106.302 277.988 104.364 277.456 102.844C277 101.248 276.316 100.032 275.404 99.196C274.492 98.284 273.428 97.676 272.212 97.372C270.996 96.992 269.628 96.802 268.108 96.802H253.06V121.198ZM308.46 166V81.64H325.332V116.524H336.504L353.832 81.64H371.844L349.956 124.048L372.528 166H354.516L336.504 131.8H325.332V166H308.46ZM412.926 166V81.64H429.798V116.752H461.604V81.64H478.59V166H461.604V131.914H429.798V166H412.926ZM526.485 166.684C520.709 166.684 515.655 166.152 511.323 165.088C506.991 163.948 503.343 161.896 500.379 158.932C497.491 155.892 495.325 151.56 493.881 145.936C492.437 140.312 491.715 132.978 491.715 123.934C491.715 114.89 492.437 107.556 493.881 101.932C495.401 96.232 497.605 91.862 500.493 88.822C503.381 85.782 506.991 83.692 511.323 82.552C515.655 81.412 520.709 80.842 526.485 80.842C532.261 80.842 537.315 81.412 541.647 82.552C545.979 83.692 549.589 85.782 552.477 88.822C555.365 91.862 557.531 96.232 558.975 101.932C560.419 107.556 561.141 114.89 561.141 123.934C561.141 132.978 560.419 140.312 558.975 145.936C557.531 151.56 555.365 155.892 552.477 158.932C549.589 161.896 545.979 163.948 541.647 165.088C537.315 166.152 532.261 166.684 526.485 166.684ZM526.485 151.522C529.905 151.522 532.755 151.142 535.035 150.382C537.315 149.622 539.101 148.292 540.393 146.392C541.761 144.416 542.749 141.642 543.357 138.07C543.965 134.422 544.269 129.71 544.269 123.934C544.269 117.854 543.965 112.99 543.357 109.342C542.749 105.694 541.761 102.92 540.393 101.02C539.101 99.044 537.315 97.714 535.035 97.03C532.755 96.346 529.905 96.004 526.485 96.004C523.217 96.004 520.443 96.346 518.163 97.03C515.883 97.714 514.021 99.044 512.577 101.02C511.209 102.92 510.183 105.694 509.499 109.342C508.891 112.99 508.587 117.854 508.587 123.934C508.587 129.71 508.853 134.422 509.385 138.07C509.993 141.642 510.981 144.416 512.349 146.392C513.717 148.292 515.541 149.622 517.821 150.382C520.177 151.142 523.065 151.522 526.485 151.522ZM574.391 166V81.64H609.275C612.619 81.64 615.735 82.058 618.623 82.894C621.511 83.654 624.057 85.022 626.261 86.998C628.465 88.974 630.175 91.71 631.391 95.206C632.683 98.702 633.329 103.186 633.329 108.658C633.329 112.534 632.949 115.84 632.189 118.576C631.429 121.312 630.403 123.554 629.111 125.302C627.895 127.05 626.489 128.456 624.893 129.52C623.297 130.584 621.663 131.458 619.991 132.142L635.723 166H618.509L604.943 134.764C604.031 134.764 602.967 134.764 601.751 134.764C600.611 134.688 599.433 134.65 598.217 134.65C597.001 134.65 595.785 134.65 594.569 134.65C593.353 134.65 592.251 134.612 591.263 134.536V166H574.391ZM591.263 121.198H606.311C607.831 121.198 609.199 121.008 610.415 120.628C611.631 120.248 612.695 119.602 613.607 118.69C614.519 117.702 615.203 116.41 615.659 114.814C616.191 113.218 616.457 111.166 616.457 108.658C616.457 106.302 616.191 104.364 615.659 102.844C615.203 101.248 614.519 100.032 613.607 99.196C612.695 98.284 611.631 97.676 610.415 97.372C609.199 96.992 607.831 96.802 606.311 96.802H591.263V121.198ZM672.085 166.684C669.881 166.684 667.601 166.608 665.245 166.456C662.965 166.38 660.609 166.228 658.177 166C655.821 165.696 653.579 165.392 651.451 165.088C649.323 164.708 647.385 164.29 645.637 163.834V150.496C647.917 150.724 650.501 150.914 653.389 151.066C656.277 151.218 659.279 151.332 662.395 151.408C665.511 151.484 668.475 151.522 671.287 151.522C674.175 151.522 676.645 151.294 678.697 150.838C680.825 150.306 682.459 149.432 683.599 148.216C684.739 146.924 685.309 145.176 685.309 142.972V139.894C685.309 137.386 684.549 135.486 683.029 134.194C681.585 132.826 679.495 132.142 676.759 132.142H669.577C661.521 132.142 655.327 130.394 650.995 126.898C646.739 123.326 644.611 117.284 644.611 108.772V104.668C644.611 96.46 646.967 90.456 651.679 86.656C656.391 82.856 663.117 80.956 671.857 80.956C674.973 80.956 678.051 81.108 681.091 81.412C684.207 81.716 687.171 82.096 689.983 82.552C692.871 82.932 695.341 83.35 697.393 83.806V97.144C693.897 96.916 689.983 96.688 685.651 96.46C681.395 96.232 677.443 96.118 673.795 96.118C671.211 96.118 668.893 96.384 666.841 96.916C664.865 97.372 663.345 98.284 662.281 99.652C661.217 101.02 660.685 102.958 660.685 105.466V107.746C660.685 110.71 661.521 112.838 663.193 114.13C664.865 115.422 667.335 116.068 670.603 116.068H678.925C684.017 116.068 688.197 117.018 691.465 118.918C694.809 120.742 697.279 123.288 698.875 126.556C700.547 129.824 701.383 133.548 701.383 137.728V142.516C701.383 149.128 700.129 154.182 697.621 157.678C695.189 161.174 691.769 163.568 687.361 164.86C683.029 166.076 677.937 166.684 672.085 166.684ZM735.113 166.57C733.289 166.57 731.199 166.38 728.843 166C726.487 165.696 724.207 164.936 722.003 163.72C719.875 162.504 718.089 160.68 716.645 158.248C715.277 155.74 714.593 152.32 714.593 147.988V100.906C714.593 97.182 715.163 94.066 716.303 91.558C717.443 89.05 718.963 87.074 720.863 85.63C722.763 84.186 724.853 83.16 727.133 82.552C729.413 81.944 731.655 81.64 733.859 81.64C739.559 81.64 744.575 81.716 748.907 81.868C753.315 82.02 757.267 82.21 760.763 82.438C764.259 82.59 767.451 82.818 770.339 83.122V97.258H738.875C736.519 97.258 734.695 97.828 733.403 98.968C732.111 100.108 731.465 101.856 731.465 104.212V116.41L764.867 117.322V130.66L731.465 131.572V143.2C731.465 145.176 731.769 146.734 732.377 147.874C733.061 148.938 733.935 149.698 734.999 150.154C736.139 150.534 737.317 150.724 738.533 150.724H770.339V164.86C766.995 165.24 763.271 165.544 759.167 165.772C755.139 166 751.035 166.19 746.855 166.342C742.751 166.494 738.837 166.57 735.113 166.57Z" fill="white"/>
</g>
<defs>
<filter id="filter0_d_2_689" x="0.177979" y="0.84198" width="850.161" height="245.842" filterUnits="userSpaceOnUse" color-interpolation-filters="sRGB">
<feFlood flood-opacity="0" result="BackgroundImageFix"/>
<feColorMatrix in="SourceAlpha" type="matrix" values="0 0 0 0 0 0 0 0 0 0 0 0 0 0 0 0 0 0 127 0" result="hardAlpha"/>
<feOffset/>
<feGaussianBlur stdDeviation="40"/>
<feColorMatrix type="matrix" values="0 0 0 0 1 0 0 0 0 1 0 0 0 0 1 0 0 0 0.3 0"/>
<feBlend mode="normal" in2="BackgroundImageFix" result="effect1_dropShadow_2_689"/>
<feBlend mode="normal" in="SourceGraphic" in2="effect1_dropShadow_2_689" result="shape"/>
</filter>
</defs>
</svg>
