<svg width="622" height="88" viewBox="0 0 622 88" fill="none" xmlns="http://www.w3.org/2000/svg">
<path d="M0.933109 1.99999H54.6931V17.12H16.7731V36.32H53.9731V51.44H16.7731V86H0.933109V1.99999ZM80.7527 1.99999H96.5927V70.88H134.753V86H80.7527V1.99999ZM202.452 68H173.892L169.812 86H153.252L173.292 1.99999H203.052L223.092 86H206.532L202.452 68ZM177.252 52.88H198.972L189.252 9.92H187.092L177.252 52.88ZM234.632 1.99999H262.472L267.272 65.12V77.36H270.152V65.12L274.952 1.99999H302.792V86H288.392V29.84L289.832 10.64H286.952L280.712 86H256.952L250.472 10.64H247.592L249.032 29.84V86H234.632V1.99999ZM321.172 1.99999H377.332V17.12H357.172V70.88H377.332V86H321.172V70.88H341.332V17.12H321.172V1.99999ZM441.191 78.08H443.351V1.99999H459.191V86H428.231L418.391 9.92H416.231V86H400.391V1.99999H431.351L441.191 78.08ZM504.811 43.52H540.811V86H526.411V76.64H524.251C523.291 79.76 521.451 82.4 518.731 84.56C516.011 86.64 511.931 87.68 506.491 87.68C502.651 87.68 499.051 86.96 495.691 85.52C492.331 84.08 489.411 81.96 486.931 79.16C484.451 76.28 482.491 72.76 481.051 68.6C479.611 64.36 478.891 59.44 478.891 53.84V34.16C478.891 28.72 479.651 23.92 481.171 19.76C482.771 15.52 484.931 11.96 487.651 9.08C490.451 6.2 493.771 4.03999 497.611 2.59999C501.451 1.07999 505.691 0.319994 510.331 0.319994C515.131 0.319994 519.411 1.12 523.171 2.72C526.931 4.24 530.131 6.4 532.771 9.19999C535.411 11.92 537.411 15.16 538.771 18.92C540.131 22.6 540.811 26.56 540.811 30.8V32.24H524.971V30.8C524.971 25.76 523.651 21.96 521.011 19.4C518.451 16.76 514.811 15.44 510.091 15.44C505.611 15.44 501.931 16.96 499.051 20C496.171 22.96 494.731 28.08 494.731 35.36V53.12C494.731 66.08 500.011 72.56 510.571 72.56C515.291 72.56 518.851 71.32 521.251 68.84C523.731 66.28 524.971 62.88 524.971 58.64H504.811V43.52ZM559.91 34.64C559.91 23.76 562.63 15.32 568.07 9.31999C573.59 3.31999 581.19 0.319994 590.87 0.319994C600.55 0.319994 608.11 3.31999 613.55 9.31999C619.07 15.32 621.83 23.76 621.83 34.64V53.36C621.83 64.56 619.07 73.08 613.55 78.92C608.11 84.76 600.55 87.68 590.87 87.68C581.19 87.68 573.59 84.76 568.07 78.92C562.63 73.08 559.91 64.56 559.91 53.36V34.64ZM590.87 73.28C593.75 73.28 596.15 72.84 598.07 71.96C599.99 71 601.55 69.68 602.75 68C603.95 66.32 604.79 64.32 605.27 62C605.75 59.68 605.99 57.12 605.99 54.32V33.68C605.99 31.04 605.71 28.56 605.15 26.24C604.59 23.92 603.71 21.92 602.51 20.24C601.31 18.56 599.75 17.24 597.83 16.28C595.91 15.24 593.59 14.72 590.87 14.72C588.15 14.72 585.83 15.24 583.91 16.28C581.99 17.24 580.43 18.56 579.23 20.24C578.03 21.92 577.15 23.92 576.59 26.24C576.03 28.56 575.75 31.04 575.75 33.68V54.32C575.75 57.12 575.99 59.68 576.47 62C576.95 64.32 577.79 66.32 578.99 68C580.19 69.68 581.75 71 583.67 71.96C585.59 72.84 587.99 73.28 590.87 73.28Z" fill="white"/>
</svg>
