<svg width="32" height="32" viewBox="0 0 32 32" fill="none" xmlns="http://www.w3.org/2000/svg">
<path d="M12.31 19.69H9.85V22.15H12.31V19.69Z" fill="black"/>
<path d="M9.84 22.15H7.38V24.61H9.84V22.15Z" fill="black"/>
<path d="M7.38 24.62H4.92V27.08H7.38V24.62Z" fill="black"/>
<path d="M2.46 14.77H0V17.23H2.46V14.77Z" fill="black"/>
<path d="M32 14.77H29.54V17.23H32V14.77Z" fill="black"/>
<path d="M17.23 24.62H14.77V27.08H17.23V24.62Z" fill="black"/>
<path d="M17.23 29.54H14.77V32H17.23V29.54Z" fill="black"/>
<path d="M17.23 4.92H14.77V7.38H17.23V4.92Z" fill="black"/>
<path d="M17.23 0H14.77V2.46H17.23V0Z" fill="black"/>
<path d="M22.15 9.85H19.69V12.31H22.15V9.85Z" fill="black"/>
<path d="M24.61 7.38H22.15V9.84H24.61V7.38Z" fill="black"/>
<path d="M22.15 14.77H20.92C20.24 14.77 19.69 14.22 19.69 13.54V12.31H18.46C17.78 12.31 17.23 11.76 17.23 11.08V9.85H14.77V11.08C14.77 11.76 14.22 12.31 13.54 12.31H12.31V13.54C12.31 14.22 11.76 14.77 11.08 14.77H7.39V17.23H11.08C11.76 17.23 12.31 17.78 12.31 18.46V19.69H13.54C14.22 19.69 14.77 20.24 14.77 20.92V22.15H17.23V20.92C17.23 20.24 17.78 19.69 18.46 19.69H19.69V18.46C19.69 17.78 20.24 17.23 20.92 17.23H24.61V14.77H22.15ZM17.23 17.23H14.77V14.77H17.23V17.23Z" fill="black"/>
</svg>
