<svg width="223" height="47" viewBox="0 0 223 47" fill="none" xmlns="http://www.w3.org/2000/svg">
<path d="M0.840909 47V0.454544H9.27273V21.8409H9.84091L28 0.454544H38.2955L20.2955 21.3409L38.4545 47H28.3182L14.4318 27.0455L9.27273 33.1364V47H0.840909ZM44.1534 47V0.454544H61.608C65.1837 0.454544 68.1837 1.07576 70.608 2.31818C73.0474 3.5606 74.8883 5.30303 76.1307 7.54545C77.3883 9.77273 78.017 12.3712 78.017 15.3409C78.017 18.3258 77.3807 20.9167 76.108 23.1136C74.8504 25.2955 72.9943 26.9848 70.5398 28.1818C68.0852 29.3636 65.0701 29.9545 61.4943 29.9545H49.0625V22.9545H60.358C62.4489 22.9545 64.161 22.6667 65.4943 22.0909C66.8277 21.5 67.8125 20.6439 68.4489 19.5227C69.1004 18.3864 69.4261 16.9924 69.4261 15.3409C69.4261 13.6894 69.1004 12.2803 68.4489 11.1136C67.7973 9.93182 66.8049 9.03788 65.4716 8.43182C64.1383 7.81061 62.4186 7.5 60.3125 7.5H52.5852V47H44.1534ZM68.1989 25.9091L79.7216 47H70.3125L58.9943 25.9091H68.1989ZM85.7784 47V0.454544H103.233C106.809 0.454544 109.809 1.12121 112.233 2.45454C114.672 3.78788 116.513 5.62121 117.756 7.95454C119.013 10.2727 119.642 12.9091 119.642 15.8636C119.642 18.8485 119.013 21.5 117.756 23.8182C116.498 26.1364 114.642 27.9621 112.188 29.2955C109.733 30.6136 106.71 31.2727 103.119 31.2727H91.5511V24.3409H101.983C104.074 24.3409 105.786 23.9773 107.119 23.25C108.453 22.5227 109.438 21.5227 110.074 20.25C110.725 18.9773 111.051 17.5152 111.051 15.8636C111.051 14.2121 110.725 12.7576 110.074 11.5C109.438 10.2424 108.445 9.26515 107.097 8.56818C105.763 7.85606 104.044 7.5 101.938 7.5H94.2102V47H85.7784ZM142.739 47H126.966V0.454544H143.057C147.678 0.454544 151.648 1.38636 154.966 3.25C158.299 5.09848 160.86 7.75757 162.648 11.2273C164.436 14.697 165.33 18.8485 165.33 23.6818C165.33 28.5303 164.428 32.697 162.625 36.1818C160.837 39.6667 158.254 42.3409 154.875 44.2045C151.511 46.0682 147.466 47 142.739 47ZM135.398 39.7045H142.33C145.572 39.7045 148.277 39.1136 150.443 37.9318C152.61 36.7348 154.239 34.9545 155.33 32.5909C156.42 30.2121 156.966 27.2424 156.966 23.6818C156.966 20.1212 156.42 17.1667 155.33 14.8182C154.239 12.4545 152.625 10.6894 150.489 9.52273C148.367 8.34091 145.731 7.75 142.58 7.75H135.398V39.7045ZM173.341 0.454544H183.659L197.477 34.1818H198.023L211.841 0.454544H222.159V47H214.068V15.0227H213.636L200.773 46.8636H194.727L181.864 14.9545H181.432V47H173.341V0.454544Z" fill="black"/>
</svg>
