<svg width="409" height="92" viewBox="0 0 409 92" fill="none" xmlns="http://www.w3.org/2000/svg">
<g filter="url(#filter0_d_1_12069)">
<path d="M20.6486 83C16.794 83 13.6473 80.64 11.2086 75.92C8.84862 71.2 7.15731 65.4967 6.13464 58.81C5.11198 52.1234 4.60065 45.6727 4.60065 39.458C4.60065 29.31 6.21333 20.3027 9.43866 12.436C12.7427 4.49069 18.2493 0.518023 25.9586 0.518023C29.3413 0.518023 32.2913 1.81603 34.8087 4.41203C37.4047 7.00803 39.6467 10.3907 41.5347 14.56C43.4227 18.6507 45.704 24.354 48.3787 31.67L50.3846 37.216C50.2273 34.2267 50.1486 32.024 50.1486 30.608C50.1486 21.404 51.368 14.088 53.8066 8.66002C56.324 3.23202 60.2966 0.518023 65.7246 0.518023C72.2539 0.518023 76.738 4.41202 79.1766 12.2C81.6153 19.9094 82.8347 28.9954 82.8347 39.458C82.8347 45.6727 82.0479 52.1234 80.4746 58.81C78.9799 65.4967 76.4233 71.2 72.8046 75.92C69.186 80.64 64.466 83 58.6447 83C55.1047 83 51.9973 81.7414 49.3226 79.224C46.7266 76.628 44.524 73.442 42.7147 69.666C40.984 65.89 38.8993 60.698 36.4606 54.09C35.202 50.6287 34.2186 48.0327 33.5106 46.302L33.6287 55.86C33.6287 62.0747 33.314 67.1094 32.6846 70.964C32.0553 74.74 30.7966 77.69 28.9086 79.814C27.0993 81.938 24.346 83 20.6486 83Z" fill="#FFF500"/>
<path d="M139.954 83.118C132.796 83.1967 126.148 81.4267 120.012 77.808C113.955 74.1894 109.078 69.2334 105.38 62.94C101.762 56.568 99.8736 49.5274 99.7162 41.818C99.6376 34.4234 101.368 27.5794 104.908 21.286C108.448 14.9927 113.326 9.99736 119.54 6.30003C125.755 2.52403 132.56 0.636028 139.954 0.636028C147.192 0.557358 153.878 2.36669 160.014 6.06403C166.229 9.76136 171.146 14.8354 174.764 21.286C178.383 27.7367 180.192 34.856 180.192 42.644C180.192 49.96 178.383 56.686 174.764 62.822C171.146 68.958 166.229 73.8354 160.014 77.454C153.878 81.0727 147.192 82.9607 139.954 83.118ZM140.308 60.108C143.927 60.108 146.995 58.81 149.512 56.214C152.108 53.618 153.367 50.2354 153.288 46.066C153.288 41.818 152.03 38.396 149.512 35.8C146.995 33.204 143.927 31.906 140.308 31.906C136.69 31.906 133.622 33.204 131.104 35.8C128.587 38.396 127.328 41.818 127.328 46.066C127.328 50.2354 128.587 53.618 131.104 56.214C133.622 58.81 136.69 60.108 140.308 60.108Z" fill="#FFF500"/>
<path d="M229.376 61.642C233.388 62.114 236.496 63.1367 238.698 64.71C240.98 66.2047 242.12 68.604 242.12 71.908C242.12 75.212 240.94 77.6507 238.58 79.224C236.299 80.7974 233.546 81.7807 230.32 82.174C227.095 82.4887 222.926 82.646 217.812 82.646C212.778 82.646 208.648 82.4887 205.422 82.174C202.197 81.7807 199.444 80.7974 197.162 79.224C194.881 77.6507 193.74 75.212 193.74 71.908C193.74 68.6827 194.802 66.3227 196.926 64.828C199.129 63.2547 202.118 62.1927 205.894 61.642C205.501 57.0794 205.304 50.55 205.304 42.054C205.304 34.4234 205.462 28.2874 205.776 23.646C201.214 23.174 197.634 22.0727 195.038 20.342C192.442 18.6114 191.144 15.8974 191.144 12.2C191.144 8.58136 192.403 5.90669 194.92 4.17602C197.438 2.44536 200.466 1.38336 204.006 0.990024C207.546 0.596691 212.109 0.400024 217.694 0.400024C223.28 0.400024 227.842 0.596691 231.382 0.990024C234.922 1.38336 237.951 2.44536 240.468 4.17602C243.064 5.90669 244.362 8.58136 244.362 12.2C244.362 15.8974 243.025 18.6114 240.35 20.342C237.754 22.0727 234.136 23.174 229.494 23.646C229.888 27.9727 230.084 34.1087 230.084 42.054C230.084 49.6847 229.848 56.214 229.376 61.642Z" fill="#FFF500"/>
<path d="M291.021 83.118C285.829 83.118 280.833 82.41 276.034 80.994C271.314 79.4994 267.46 77.454 264.471 74.858C261.481 72.1834 259.987 69.1547 259.987 65.772C259.987 62.5467 260.97 59.99 262.937 58.102C264.903 56.214 267.381 55.27 270.37 55.27C272.337 55.27 274.029 55.5454 275.445 56.096C276.939 56.568 278.552 57.276 280.282 58.22C281.541 58.8494 282.603 59.3607 283.469 59.754C284.413 60.0687 285.396 60.226 286.419 60.226C289.015 60.226 290.312 59.2034 290.312 57.158C290.312 56.3714 289.762 55.7027 288.661 55.152C287.559 54.5227 285.711 53.6967 283.115 52.674C278.473 50.8647 274.697 49.0947 271.786 47.364C267.302 44.6894 264.195 41.7787 262.464 38.632C260.812 35.4854 259.987 31.552 259.987 26.832C259.987 22.2694 261.442 17.982 264.352 13.97C267.263 9.87936 271.236 6.61469 276.271 4.17602C281.305 1.73736 286.812 0.518023 292.791 0.518023C298.612 0.518023 303.922 1.42269 308.721 3.23202C313.598 4.96269 317.413 7.40136 320.167 10.548C322.999 13.616 324.414 17.038 324.414 20.814C324.414 25.1407 323.117 28.4054 320.521 30.608C318.003 32.732 315.171 33.794 312.024 33.794C309.428 33.794 307.462 33.6367 306.125 33.322C304.866 33.0074 303.607 32.5747 302.349 32.024C301.326 31.6307 300.461 31.3554 299.753 31.198C299.044 30.962 298.061 30.844 296.802 30.844C295.78 30.844 294.796 31.198 293.852 31.906C292.987 32.5354 292.555 33.44 292.555 34.62C292.555 35.4854 293.066 36.2327 294.089 36.862C295.111 37.4127 296.291 37.924 297.628 38.396C298.966 38.868 299.91 39.222 300.461 39.458C307.777 42.1327 313.165 45.2007 316.627 48.662C320.088 52.0447 321.818 56.45 321.818 61.878C321.818 68.5647 319.105 73.796 313.677 77.572C308.327 81.2694 300.775 83.118 291.021 83.118Z" fill="#FFF500"/>
<path d="M397.736 64.12C401.512 65.3 403.4 67.778 403.4 71.554C403.4 75.094 401.591 77.8867 397.972 79.932C394.353 81.9774 388.099 83 379.21 83C368.118 83 358.599 80.3254 350.654 74.976C342.787 69.6267 338.854 59.0067 338.854 43.116C338.854 35.092 340.231 27.8547 342.984 21.404C345.737 14.9534 349.828 9.84003 355.256 6.06403C360.763 2.28803 367.489 0.400024 375.434 0.400024C386.054 0.400024 393.527 2.05202 397.854 5.35602C402.181 8.58136 404.344 12.554 404.344 17.274C404.344 19.4767 403.793 21.522 402.692 23.41C401.591 25.2194 399.939 26.6354 397.736 27.658C395.848 28.602 393.409 29.074 390.42 29.074L387.234 28.956C386.605 28.8774 385.7 28.838 384.52 28.838C380.429 28.838 377.204 29.5854 374.844 31.08C372.484 32.496 370.871 34.6987 370.006 37.688C373.31 37.5307 376.299 37.452 378.974 37.452C386.919 37.452 392.072 37.688 394.432 38.16C397.107 38.7107 399.152 39.7727 400.568 41.346C402.063 42.9194 402.81 44.768 402.81 46.892C402.81 49.016 402.102 50.8647 400.686 52.438C399.27 53.9327 397.146 54.9554 394.314 55.506C392.111 55.978 386.762 56.214 378.266 56.214C374.805 56.214 372.366 56.1747 370.95 56.096C373.389 61.288 377.951 63.884 384.638 63.884C385.031 63.884 385.936 63.8054 387.352 63.648C389.24 63.4907 390.853 63.412 392.19 63.412C394.471 63.412 396.32 63.648 397.736 64.12Z" fill="#FFF500"/>
</g>
<defs>
<filter id="filter0_d_1_12069" x="0.600647" y="0.400024" width="407.743" height="90.7205" filterUnits="userSpaceOnUse" color-interpolation-filters="sRGB">
<feFlood flood-opacity="0" result="BackgroundImageFix"/>
<feColorMatrix in="SourceAlpha" type="matrix" values="0 0 0 0 0 0 0 0 0 0 0 0 0 0 0 0 0 0 127 0" result="hardAlpha"/>
<feOffset dy="4"/>
<feGaussianBlur stdDeviation="2"/>
<feComposite in2="hardAlpha" operator="out"/>
<feColorMatrix type="matrix" values="0 0 0 0 0 0 0 0 0 0 0 0 0 0 0 0 0 0 0.25 0"/>
<feBlend mode="normal" in2="BackgroundImageFix" result="effect1_dropShadow_1_12069"/>
<feBlend mode="normal" in="SourceGraphic" in2="effect1_dropShadow_1_12069" result="shape"/>
</filter>
</defs>
</svg>
