<svg width="247" height="65" viewBox="0 0 247 65" fill="none" xmlns="http://www.w3.org/2000/svg">
<path d="M21.25 28.7681V1.57608C21.8954 1.51741 22.5407 1.45874 23.186 1.40008C23.8314 1.34141 24.4767 1.31208 25.122 1.31208C27.3514 1.31208 29.17 1.60541 30.578 2.19208C32.0447 2.77874 33.1887 3.68808 34.01 4.92008C34.8314 6.09341 35.418 7.61874 35.77 9.49608C36.122 11.3147 36.298 13.5147 36.298 16.0961C36.298 17.6801 36.1807 19.2347 35.946 20.7601C35.77 22.2854 35.3007 23.6641 34.538 24.8961C33.7754 26.0694 32.6314 27.0081 31.106 27.7121C29.5807 28.4161 27.498 28.7681 24.858 28.7681H21.25ZM8.49004 1.57608V61.7681H0.394043V63.0001H29.346V61.7681H21.25V30.0001H27.058C29.8154 30.0001 31.9567 30.5281 33.482 31.5841C35.0074 32.6401 36.1514 34.0481 36.914 35.8081C37.6767 37.5681 38.146 39.5921 38.322 41.8801C38.5567 44.1094 38.7327 46.4267 38.85 48.8321C38.9087 50.4161 39.026 52.1174 39.202 53.9361C39.4367 55.6961 39.994 57.3387 40.874 58.8641C41.754 60.3894 43.1034 61.6801 44.922 62.7361C46.7407 63.7334 49.2634 64.2321 52.49 64.2321C54.074 64.2321 55.3941 64.1147 56.4501 63.8801C57.5061 63.7041 58.386 63.4401 59.09 63.0881C59.8527 62.7361 60.498 62.3254 61.026 61.8561C61.6127 61.3281 62.1994 60.7707 62.786 60.1841L61.906 59.3921C61.3194 59.9787 60.6447 60.6241 59.882 61.3281C59.1194 61.9734 58.1514 62.2961 56.978 62.2961C55.922 62.2961 55.1007 62.0907 54.514 61.6801C53.986 61.2694 53.546 60.4481 53.194 59.2161C52.9007 57.9841 52.666 56.2534 52.49 54.0241C52.314 51.7947 52.0794 48.8321 51.786 45.1361C51.5514 41.9681 50.9354 39.4454 49.938 37.5681C48.9994 35.6907 47.7087 34.2241 46.066 33.1681C44.4234 32.1121 42.458 31.3201 40.17 30.7921C37.9407 30.2641 35.3887 29.7361 32.514 29.2081V28.7681C34.5087 28.5921 36.5327 28.2401 38.586 27.7121C40.6394 27.1254 42.4874 26.3041 44.13 25.2481C45.8314 24.1921 47.21 22.8427 48.266 21.2001C49.322 19.4987 49.85 17.4747 49.85 15.1281C49.85 12.1947 49.146 9.76008 47.738 7.82408C46.3887 5.88808 44.658 4.36275 42.546 3.24808C40.434 2.07474 38.0874 1.25341 35.506 0.78408C32.9834 0.314745 30.578 0.0800781 28.29 0.0800781C25.826 0.0800781 23.3914 0.138744 20.986 0.256076C18.5807 0.314745 16.146 0.34408 13.682 0.34408H0.394043V1.57608H8.49004Z" fill="white"/>
<path d="M91.377 0.34408V1.57608H99.473V61.7681H91.377V63.0001H147.609V43.7281H146.465C145.878 46.2507 145.028 48.6267 143.913 50.8561C142.798 53.0267 141.39 54.9334 139.689 56.5761C138.046 58.2187 136.14 59.5094 133.969 60.4481C131.798 61.3281 129.364 61.7681 126.665 61.7681H112.233V30.0001H118.129C120.182 30.0001 121.884 30.3521 123.233 31.0561C124.641 31.7601 125.814 32.7281 126.753 33.9601C127.692 35.1334 128.425 36.5121 128.953 38.0961C129.54 39.6801 130.038 41.3227 130.449 43.0241H131.593V15.6561H130.449C130.038 17.6507 129.51 19.4694 128.865 21.1121C128.22 22.6961 127.398 24.0747 126.401 25.2481C125.404 26.3627 124.142 27.2427 122.617 27.8881C121.15 28.4747 119.332 28.7681 117.161 28.7681H112.233V1.57608H126.225C129.1 1.57608 131.534 2.13341 133.529 3.24808C135.524 4.30408 137.137 5.56541 138.369 7.03208C139.66 8.49875 140.657 10.0241 141.361 11.6081C142.065 13.1334 142.564 14.3947 142.857 15.3921H144.001V0.34408H91.377Z" fill="white"/>
<path d="M202.6 61.7681V1.57608C203.187 1.45874 203.949 1.40008 204.888 1.40008C205.827 1.34141 206.883 1.31208 208.056 1.31208C213.16 1.31208 217.267 2.04541 220.376 3.51208C223.544 4.97874 225.979 7.09074 227.68 9.84808C229.44 12.5467 230.613 15.8321 231.2 19.7041C231.787 23.5174 232.08 27.8001 232.08 32.5521C232.08 34.4881 231.992 36.5707 231.816 38.8001C231.64 40.9707 231.259 43.1707 230.672 45.4001C230.144 47.5707 229.323 49.6534 228.208 51.6481C227.152 53.6427 225.685 55.4321 223.808 57.0161C221.989 58.5414 219.731 59.7734 217.032 60.7121C214.333 61.5921 211.077 62.0321 207.264 62.0321C205.856 62.0321 204.301 61.9441 202.6 61.7681ZM189.84 1.57608V61.7681H181.744V63.0001H189.84C193.184 63.0001 196.499 63.0294 199.784 63.0881C203.128 63.1467 206.472 63.1761 209.816 63.1761C212.104 63.1761 214.568 63.0001 217.208 62.6481C219.907 62.2961 222.605 61.6801 225.304 60.8001C228.061 59.8614 230.701 58.6294 233.224 57.1041C235.747 55.5787 237.976 53.6427 239.912 51.2961C241.907 48.9494 243.491 46.1627 244.664 42.9361C245.837 39.7094 246.424 35.9547 246.424 31.6721C246.424 27.3307 245.837 23.5467 244.664 20.3201C243.491 17.0934 241.907 14.3067 239.912 11.9601C237.917 9.61341 235.629 7.67741 233.048 6.15208C230.467 4.62674 227.739 3.42408 224.864 2.54408C221.989 1.60541 219.085 0.960079 216.152 0.608077C213.219 0.256078 210.432 0.0800781 207.792 0.0800781C204.8 0.0800781 201.808 0.138744 198.816 0.256076C195.824 0.314745 192.832 0.34408 189.84 0.34408H181.744V1.57608H189.84Z" fill="white"/>
</svg>
