<svg width="533" height="493" viewBox="0 0 533 493" fill="none" xmlns="http://www.w3.org/2000/svg">
<g clip-path="url(#clip0_2_3901)">
<path d="M467.326 414.912C466.961 414.659 466.516 414.489 466.163 414.23C461.345 410.763 455.557 409.344 450.025 407.317C436.502 402.437 422.348 399.348 408.021 398.149C401.549 397.566 395.1 396.733 388.637 396.015C399.82 395.721 410.964 396.029 422.108 396.383C424.368 396.396 426.63 396.513 428.888 396.732C432.72 397.204 437.126 395.987 439.892 399.982C440.111 400.294 441.037 400.231 441.633 400.362C452.083 402.068 462.553 403.633 473.082 404.646C475.33 404.863 477.544 404.626 478.774 402.041C472.485 398.316 466.734 393.679 460.089 391.208C430.966 380.357 440.46 379.631 408.661 383.338C405.391 383.718 402.196 384.789 398.323 384.455C399.938 382.692 401.806 382.115 403.357 381.159C406.165 379.42 408.709 377.487 410.222 374.59C413.213 368.916 411.773 366.45 404.724 364.611C396.92 362.57 388.853 362.205 381.071 360.296C373.861 358.54 366.595 356.708 359.175 356.429C351.479 356.144 343.592 353.074 336.093 356.588C334.788 357.214 333.027 356.548 331.666 356.023C324.292 353.251 316.51 351.599 308.65 351.136C297.976 350.411 287.346 348.31 276.62 349.187C262.115 350.333 247.59 351.383 233.079 352.51C231.651 352.618 230.044 352.331 228.321 353.65C264.389 360.529 300.826 363.787 334.808 377.548C327.25 377.147 319.755 376.086 312.288 375.55C296.578 374.473 280.907 374.481 265.46 376.607C259.278 377.464 252.722 376.889 246.956 379.314C236.911 383.503 226.922 387.905 216.934 392.252C216.007 392.651 214.483 392.729 214.821 394.608L248.912 397.49C243.339 400.631 184.742 410.159 174.702 410.894L170.479 429.117C185.735 427.35 193.905 426.353 206.714 422.74C212.327 421.157 218.111 420.058 223.676 418.319C228.681 416.75 234.162 416.195 239.027 414.377C243.892 412.558 248.791 411.239 253.679 409.835C259.342 408.208 264.533 405.74 270.116 404.06C276.828 402.042 283.217 399.298 290.738 399.444C311.715 399.706 332.606 398.539 353.233 395.955C358.2 395.361 362.969 395.345 367.846 397.321C370.741 398.472 371.984 399.582 370.318 402.145C368.257 405.342 366.451 408.594 363.187 411.109C358.353 414.803 353.734 418.827 348.213 421.588C337.557 426.929 334.403 436.405 330.63 445.801C332.52 446.533 334.018 446.103 335.459 445.889C344.164 444.598 352.892 443.394 361.565 441.969C376.9 439.463 392.86 438.881 405.959 430.089C410.942 426.746 413.124 422.992 410.644 417.592C408.567 412.944 404.706 409.057 399.789 406.663C394.862 404.165 389.95 401.644 384.546 398.887C399.694 401.136 413.944 404.82 427.253 410.797C437.745 415.503 448.703 419.9 456.78 428.3C460.369 432.046 460.648 433.346 457.513 437.102C455.279 439.778 452.451 442.077 450.453 445.972C457.112 443.915 462.172 441.018 467.237 438.139C473.451 434.6 473.493 419.194 467.326 414.912ZM342.493 359.616C353.956 358.271 361.023 362.093 362.592 370.822C356.43 365.767 349.368 363.095 342.493 359.616Z" fill="#A5A295"/>
<path d="M467.326 414.912C466.961 414.659 466.516 414.489 466.163 414.23C461.345 410.763 455.557 409.344 450.025 407.317C436.502 402.437 422.348 399.348 408.021 398.149C401.549 397.566 395.1 396.733 388.637 396.015C399.82 395.721 410.964 396.029 422.108 396.383C424.368 396.396 426.63 396.513 428.888 396.732C432.72 397.204 437.126 395.987 439.892 399.982C440.111 400.294 441.037 400.231 441.633 400.362C452.083 402.068 462.553 403.633 473.082 404.646C475.33 404.863 477.544 404.626 478.774 402.041C472.485 398.316 466.734 393.679 460.089 391.208C430.966 380.357 440.46 379.631 408.661 383.338C405.391 383.718 402.196 384.789 398.323 384.455C399.938 382.692 401.806 382.115 403.357 381.159C406.165 379.42 408.709 377.487 410.222 374.59C413.213 368.916 411.773 366.45 404.724 364.611C396.92 362.57 388.853 362.205 381.071 360.296C373.861 358.54 366.595 356.708 359.175 356.429C351.479 356.144 343.592 353.074 336.093 356.588C334.788 357.214 333.027 356.548 331.666 356.023C324.292 353.251 316.51 351.599 308.65 351.136C297.976 350.411 287.346 348.31 276.62 349.187C262.115 350.333 247.59 351.383 233.079 352.51C231.651 352.618 230.044 352.331 228.321 353.65C264.389 360.529 300.826 363.787 334.808 377.548C327.25 377.147 319.755 376.086 312.288 375.55C296.578 374.473 280.907 374.481 265.46 376.607C259.278 377.464 252.722 376.889 246.956 379.314C236.911 383.503 226.922 387.905 216.934 392.252C216.007 392.651 214.483 392.729 214.821 394.608L248.912 397.49C243.339 400.631 184.742 410.159 174.702 410.894L170.479 429.117C185.735 427.35 193.905 426.353 206.714 422.74C212.327 421.157 218.111 420.058 223.676 418.319C228.681 416.75 234.162 416.195 239.027 414.377C243.892 412.558 248.791 411.239 253.679 409.835C259.342 408.208 264.533 405.74 270.116 404.06C276.828 402.042 283.217 399.298 290.738 399.444C311.715 399.706 332.606 398.539 353.233 395.955C358.2 395.361 362.969 395.345 367.846 397.321C370.741 398.472 371.984 399.582 370.318 402.145C368.257 405.342 366.451 408.594 363.187 411.109C358.353 414.803 353.734 418.827 348.213 421.588C337.557 426.929 334.403 436.405 330.63 445.801C332.52 446.533 334.018 446.103 335.459 445.889C344.164 444.598 352.892 443.394 361.565 441.969C376.9 439.463 392.86 438.881 405.959 430.089C410.942 426.746 413.124 422.992 410.644 417.592C408.567 412.944 404.706 409.057 399.789 406.663C394.862 404.165 389.95 401.644 384.546 398.887C399.694 401.136 413.944 404.82 427.253 410.797C437.744 415.503 448.703 419.9 456.78 428.3C460.369 432.046 460.648 433.347 457.513 437.102C455.279 439.778 452.451 442.077 450.453 445.972C457.112 443.915 462.172 441.018 467.237 438.139C473.451 434.6 473.493 419.194 467.326 414.912ZM342.493 359.616C353.956 358.271 361.023 362.093 362.592 370.822C356.43 365.767 349.368 363.095 342.493 359.616Z" fill="url(#paint0_linear_2_3901)" fill-opacity="0.5"/>
<path d="M467.326 414.912C466.961 414.659 466.516 414.489 466.163 414.23C461.345 410.763 455.557 409.344 450.025 407.317C436.502 402.437 422.348 399.348 408.021 398.149C401.549 397.566 395.1 396.733 388.637 396.015C399.82 395.721 410.964 396.029 422.108 396.383C424.368 396.396 426.63 396.513 428.888 396.732C432.72 397.204 437.126 395.987 439.892 399.982C440.111 400.294 441.037 400.231 441.633 400.362C452.083 402.068 462.553 403.633 473.082 404.646C475.33 404.863 477.544 404.626 478.774 402.041C472.485 398.316 466.734 393.679 460.089 391.208C430.966 380.357 440.46 379.631 408.661 383.338C405.391 383.718 402.196 384.789 398.323 384.455C399.938 382.692 401.806 382.115 403.357 381.159C406.165 379.42 408.709 377.487 410.222 374.59C413.213 368.916 411.773 366.45 404.724 364.611C396.92 362.57 388.853 362.205 381.071 360.296C373.861 358.54 366.595 356.708 359.175 356.429C351.479 356.144 343.592 353.074 336.093 356.588C334.788 357.214 333.027 356.548 331.666 356.023C324.292 353.251 316.51 351.599 308.65 351.136C297.976 350.411 287.346 348.31 276.62 349.187C262.115 350.333 247.59 351.383 233.079 352.51C231.651 352.618 230.044 352.331 228.321 353.65C264.389 360.529 300.826 363.787 334.808 377.548C327.25 377.147 319.755 376.086 312.288 375.55C296.578 374.473 280.907 374.481 265.46 376.607C259.278 377.464 252.722 376.889 246.956 379.314C236.911 383.503 226.922 387.905 216.934 392.252C216.007 392.651 214.483 392.729 214.821 394.608L248.912 397.49C243.339 400.631 184.742 410.159 174.702 410.894L170.479 429.117C185.735 427.35 193.905 426.353 206.714 422.74C212.327 421.157 218.111 420.058 223.676 418.319C228.681 416.75 234.162 416.195 239.027 414.377C243.892 412.558 248.791 411.239 253.679 409.835C259.342 408.208 264.533 405.74 270.116 404.06C276.828 402.042 283.217 399.298 290.738 399.444C311.715 399.706 332.606 398.539 353.233 395.955C358.2 395.361 362.969 395.345 367.846 397.321C370.741 398.472 371.984 399.582 370.318 402.145C368.257 405.342 366.451 408.594 363.187 411.109C358.353 414.803 353.734 418.827 348.213 421.588C337.557 426.929 334.403 436.405 330.63 445.801C332.52 446.533 334.018 446.103 335.459 445.889C344.164 444.598 352.892 443.394 361.565 441.969C376.9 439.463 392.86 438.881 405.959 430.089C410.942 426.746 413.124 422.992 410.644 417.592C408.567 412.944 404.706 409.057 399.789 406.663C394.862 404.165 389.95 401.644 384.546 398.887C399.694 401.136 413.944 404.82 427.253 410.797C437.745 415.503 448.703 419.9 456.78 428.3C460.369 432.046 460.648 433.346 457.513 437.102C455.279 439.778 452.451 442.077 450.453 445.972C457.112 443.915 462.172 441.018 467.237 438.139C473.451 434.6 473.493 419.194 467.326 414.912ZM342.493 359.616C353.956 358.271 361.023 362.093 362.592 370.822C356.43 365.767 349.368 363.095 342.493 359.616Z" fill="#A5A295" fill-opacity="0.5"/>
<path d="M159.708 398.177L158.81 393.323L158.691 391.847L157.241 373.891L158.436 380.105L159.708 398.177Z" fill="#7B5B00"/>
<path d="M158.81 393.323L159.708 398.177L173.958 400.877L181.594 397.63L182.239 395.756L186.746 397.97L176.074 402.542L156.029 398.742L154.82 391.932L158.691 391.847L158.81 393.323Z" fill="#B18400"/>
<path d="M173.958 400.877L159.708 398.177L158.436 380.105L177.623 383.709L173.958 400.877Z" fill="#826100"/>
<path d="M181.594 397.63L173.958 400.877L177.623 383.709L187.811 379.615L182.239 395.756L181.594 397.63Z" fill="#513C00"/>
<path d="M157.577 422.59L154.82 391.932L156.029 398.742L158.317 426.945L157.577 422.59Z" fill="#7A5B00"/>
<path d="M186.746 397.97L176.627 426.256L170.207 429.239L176.074 402.542L186.746 397.97Z" fill="#513C00"/>
<path d="M176.074 402.542L170.207 429.239L158.317 426.945L156.029 398.742L176.074 402.542Z" fill="#816000"/>
<path d="M157.241 373.891L160.95 373.844L161.047 375.186L161.934 379.619L175.577 382.187L182.874 379.276L183.445 377.55L187.811 379.615L177.623 383.709L158.436 380.105L157.241 373.891Z" fill="#B18400"/>
<path d="M182.874 379.276L175.577 382.187L179.19 364.743L188.922 361.096L183.445 377.55L182.874 379.276Z" fill="#513C00"/>
<path d="M175.577 382.187L161.934 379.619L160.823 361.326L179.19 364.743L175.577 382.187Z" fill="#836100"/>
<path d="M161.934 379.619L161.047 375.186L160.95 373.844L159.651 355.665L160.823 361.327L161.934 379.619Z" fill="#7B5C00"/>
<path d="M159.651 355.665L163.2 355.646L163.28 356.876L164.161 360.916L177.229 363.348L184.2 360.758L184.711 359.165L188.922 361.096L179.19 364.743L160.823 361.327L159.651 355.665Z" fill="#B18400"/>
<path d="M164.161 360.916L163.28 356.876L163.2 355.646L162.028 337.258L163.201 342.401L164.161 360.916Z" fill="#7C5C00"/>
<path d="M177.229 363.348L164.161 360.916L163.201 342.401L180.789 345.629L177.229 363.348Z" fill="#846200"/>
<path d="M184.2 360.758L177.229 363.348L180.789 345.629L190.102 342.401L184.711 359.165L184.2 360.758Z" fill="#513C00"/>
<path d="M162.028 337.258L165.439 337.264L165.503 338.381L166.372 342.053L178.904 344.36L185.575 342.06L186.025 340.609L190.102 342.401L180.789 345.629L163.201 342.401L162.028 337.258Z" fill="#B18400"/>
<path d="M166.372 342.053L165.503 338.381L165.439 337.264L164.397 318.658L165.553 323.314L166.372 342.053Z" fill="#7D5D00"/>
<path d="M178.904 344.36L166.372 342.053L165.553 323.314L182.429 326.377L178.904 344.36Z" fill="#846200"/>
<path d="M185.575 342.06L178.904 344.36L182.429 326.377L191.338 323.545L186.025 340.609L185.575 342.06Z" fill="#513C00"/>
<path d="M164.397 318.658L167.597 318.691L167.635 319.502L168.575 322.852L180.524 325.013L186.962 323.027L187.305 321.835L191.338 323.545L182.429 326.377L165.553 323.314L164.397 318.658Z" fill="#B18400"/>
<path d="M186.962 323.027L180.524 325.013L184.027 305.814L192.486 304.059L187.304 321.835L186.962 323.027Z" fill="#513C00"/>
<path d="M180.524 325.013L168.575 322.852L167.832 303.154L184.027 305.814L180.524 325.013Z" fill="#8B6700"/>
<path d="M168.575 322.852L167.635 319.502L167.597 318.692L166.623 299.818L167.832 303.154L168.575 322.852Z" fill="#7E5E00"/>
<path d="M166.623 299.818L169.754 299.936L169.782 300.653L170.684 303.047L182.258 304.953L188.343 303.692L188.613 302.739L192.486 304.059L184.027 305.813L167.832 303.154L166.623 299.818Z" fill="#AE8100"/>
<path d="M188.344 303.692L182.258 304.953L185.63 286.026L193.745 284.579L188.613 302.739L188.344 303.692Z" fill="#513C00"/>
<path d="M182.258 304.953L170.684 303.047L170.071 283.505L185.63 286.026L182.258 304.953Z" fill="#8B6800"/>
<path d="M170.684 303.047L169.782 300.653L169.754 299.936L168.88 280.556L170.071 283.505L170.684 303.047Z" fill="#7E5E00"/>
<path d="M168.88 280.556L171.812 280.694L171.832 281.164L172.764 283.281L183.839 285.079L189.707 284.062L189.906 283.34L193.745 284.579L185.63 286.026L170.071 283.505L168.88 280.556Z" fill="#AE8100"/>
<path d="M183.839 285.078L172.764 283.281L172.199 263.048L187.175 265.24L183.839 285.078Z" fill="#916C00"/>
<path d="M189.707 284.062L183.839 285.078L187.175 265.24L194.902 264.675L189.906 283.34L189.707 284.062Z" fill="#513C00"/>
<path d="M172.764 283.281L171.832 281.163L171.812 280.694L170.978 261.177L172.199 263.048L172.764 283.281Z" fill="#7F5F00"/>
<path d="M170.978 261.177L173.863 261.387L173.881 261.774L174.777 263.118L185.512 264.686L191.092 264.29L191.227 263.764L194.902 264.675L187.175 265.24L172.199 263.048L170.978 261.177Z" fill="#AA7F00"/>
<path d="M191.092 264.29L185.512 264.686L188.742 245.098L196.178 244.789L191.227 263.764L191.092 264.29Z" fill="#513C00"/>
<path d="M185.512 264.686L174.777 263.118L174.326 243.019L188.742 245.098L185.512 264.686Z" fill="#916C00"/>
<path d="M174.777 263.118L173.881 261.774L173.863 261.387L173.125 241.48L174.326 243.018L174.777 263.118Z" fill="#805F00"/>
<path d="M173.125 241.48L176.278 241.731L176.276 242.068L177.182 243.177L187.524 244.668L192.911 244.449L193.016 244.062L196.178 244.789L188.742 245.098L174.326 243.019L173.125 241.48Z" fill="#AA7F00"/>
<path d="M187.524 244.668L177.182 243.177L177.388 222.838L191.27 225.111L187.524 244.668Z" fill="#926D00"/>
<path d="M177.182 243.177L176.276 242.068L176.278 241.731L176.183 221.554L177.388 222.838L177.182 243.177Z" fill="#826100"/>
<path d="M192.911 244.449L187.524 244.668L191.27 225.111L198.386 225.187L193.016 244.062L192.911 244.449Z" fill="#513C00"/>
<path d="M176.183 221.554L179.843 221.97L179.812 222.346L180.666 223.271L190.737 224.922L195.882 224.969L195.997 224.629L198.386 225.187L191.27 225.111L177.388 222.838L176.183 221.554Z" fill="#A97E00"/>
<path d="M195.882 224.969L190.737 224.922L195.498 206.443L202.392 206.316L195.997 224.629L195.882 224.969Z" fill="#513C00"/>
<path d="M190.737 224.922L180.666 223.271L182.186 203.437L195.498 206.443L190.737 224.922Z" fill="#8D6900"/>
<path d="M180.666 223.271L179.812 222.346L179.843 221.97L181.092 201.503L182.186 203.437L180.666 223.271Z" fill="#876400"/>
<path d="M181.092 201.503L184.52 201.996L184.451 202.546L185.212 203.943L194.869 206.133L199.872 206.03L200.074 205.527L202.392 206.316L195.498 206.443L182.186 203.437L181.092 201.503Z" fill="#AB7F00"/>
<path d="M199.872 206.03L194.869 206.133L200.779 188.114L207.5 187.794L200.074 205.527L199.872 206.03Z" fill="#513C00"/>
<path d="M194.869 206.133L185.212 203.943L188.036 184.431L195.023 186.457L195.418 188.029L196.305 186.828L200.78 188.114L194.869 206.133Z" fill="#886500"/>
<path d="M185.212 203.943L184.451 202.546L184.52 201.996L187.104 181.893L188.036 184.431L185.212 203.943Z" fill="#8B6800"/>
<path d="M187.104 181.893L190.084 182.416L189.957 183.045L190.606 184.864L194.941 186.129L195.023 186.457L188.036 184.431L187.104 181.893Z" fill="#AB7F00"/>
<path d="M194.941 186.129L190.606 184.864L192.476 176.201L194.941 186.129Z" fill="#836200"/>
<path d="M190.606 184.864L189.957 183.045L190.084 182.416L191.832 173.609L192.476 176.201L190.606 184.864Z" fill="#906B00"/>
<path d="M205.01 186.667L207.5 187.794L200.78 188.114L196.305 186.828L196.493 186.577L199.836 187.553L204.697 187.301L205.01 186.667Z" fill="#AB7F00"/>
<path d="M204.697 187.301L199.836 187.553L204.692 175.495L208.82 169.914L213.446 169.565L205.01 186.668L204.697 187.301Z" fill="#513C00"/>
<path d="M199.836 187.553L196.493 186.577L204.692 175.494L199.836 187.553Z" fill="#836200"/>
<path d="M210.676 167.985L213.446 169.565L208.82 169.914L209.647 168.8L210.304 168.752L210.676 167.985Z" fill="#AB7F00"/>
<path d="M210.304 168.752L209.648 168.8L211.482 166.31L210.676 167.985L210.304 168.752Z" fill="#513C00"/>
<path d="M298.262 72.118L283.12 76.3706L283.485 66.3403L298.262 72.118Z" fill="#2D5A00"/>
<path d="M283.485 66.3403L283.12 76.3705L269.705 71.8655L283.485 66.3403Z" fill="#2D5A00"/>
<path d="M269.705 71.8654L283.12 76.3705L276.217 81.3273L269.038 86.47L262.478 91.1734L256.452 95.4922L262.548 80.8966L262.648 79.6877L269.705 71.8654Z" fill="#2D5A00"/>
<path d="M269.705 71.8655L262.648 79.6877L262.721 78.7463L269.705 71.8655Z" fill="#2D5A00"/>
<path d="M269.705 71.8655L262.721 78.7462L263.544 68.8707L262.597 67.479L269.705 71.8655Z" fill="#2D5A00"/>
<path d="M269.705 71.8655L262.597 67.479L260.217 63.9694L256.218 60.8814L258.716 59.2478L258.981 59.0686L259.806 58.5284L260.308 58.2004L267.824 53.2955L267.943 53.2211L269.705 71.8655Z" fill="#2D5A00"/>
<path d="M283.485 66.3403L269.705 71.8656L267.943 53.2212L283.485 66.3403Z" fill="#2D5A00"/>
<path d="M298.262 72.118L283.485 66.3403L298.179 65.4542L298.262 72.118Z" fill="#2D5A00"/>
<path d="M283.485 66.3402L267.943 53.2211L282.499 50.1989L284.046 49.8711L283.485 66.3402Z" fill="#2D5A00"/>
<path d="M298.179 65.4542L283.485 66.3403L284.046 49.8712L298.179 65.4542Z" fill="#2D5A00"/>
<path d="M298.262 72.1179L298.179 65.4541L314.019 71.9014L312.548 71.9268L298.262 72.1179Z" fill="#2D5A00"/>
<path d="M314.019 71.9014L298.179 65.4541L321.322 73.7505L314.019 71.9014Z" fill="#59B200"/>
<path d="M298.179 65.4542L284.046 49.8712L299.049 54.2852L299.934 54.5512L302.881 55.4134L307.242 56.7025L309.853 57.4638L310.016 57.5175L298.179 65.4542Z" fill="#2D5A00"/>
<path d="M321.322 73.7506L298.179 65.4542L310.016 57.5174L321.322 73.7506Z" fill="#2D5A00"/>
<path d="M314.019 71.9015L321.322 73.7506L322.011 74.5391L314.019 71.9015Z" fill="#5AB500"/>
<path d="M314.019 71.9015L322.011 74.5391L327.03 80.1836L319.545 78.796L312.548 71.9269L314.019 71.9015Z" fill="#285100"/>
<path d="M321.322 73.7506L310.016 57.5175L328.045 78.7276L321.322 73.7506Z" fill="#3D7B00"/>
<path d="M328.045 78.7276L310.016 57.5175L346.77 83.5073L328.045 78.7276Z" fill="#50A000"/>
<path d="M321.322 73.7506L328.045 78.7276L329.145 82.5596L327.03 80.1836L322.011 74.5391L321.322 73.7506Z" fill="#3F7E00"/>
<path d="M346.77 83.5073L310.016 57.5175L321.239 61.7812L328.403 64.5024L330.82 66.999L335.091 71.4227L345.132 81.8097L346.77 83.5073Z" fill="#50A000"/>
<path d="M328.045 78.7275L346.77 83.5072L359.872 131.565L328.045 78.7275Z" fill="#3B7700"/>
<path d="M359.872 131.565L346.77 83.5072L365.161 133.203L359.872 131.565Z" fill="#2F5E00"/>
<path d="M328.045 78.7275L359.872 131.565L343.065 131.051L338.323 114.509L332.952 95.825L329.145 82.5595L328.045 78.7275Z" fill="#3C7800"/>
<path d="M343.065 131.051L359.872 131.565L355.637 207.409L347.039 155.147L343.065 131.051Z" fill="#2D5A00"/>
<path d="M365.161 133.203L346.77 83.5072L353.135 93.7391L355.014 99.9198L361.373 120.789L365.161 133.203Z" fill="#2E5D00"/>
<path d="M353.135 93.7391L346.77 83.5072L345.132 81.8096L367.537 79.5433L375.94 122.975L355.014 99.9198L353.135 93.7391Z" fill="#356B00"/>
<path d="M359.872 131.565L365.161 133.203L361.352 162.865L355.637 207.409L359.872 131.565Z" fill="#2D5A00"/>
<path d="M173.4 99.4999L181.229 48.7903L211.184 107.765L173.4 99.4999Z" fill="#56AE00"/>
<path d="M211.184 107.765L181.229 48.7903L224.157 61.1862L211.184 107.765Z" fill="#56AD00"/>
<path d="M224.157 61.1861L181.229 48.7902L181.347 48.6245L182.631 46.8263L185.742 42.4821L188.912 38.0507L189.22 37.6257L191.699 34.1556L192.553 32.9654L224.157 61.1861Z" fill="#5CBA00"/>
<path d="M224.157 61.1861L192.553 32.9655L230.805 46.0362L224.157 61.1861Z" fill="#5BB900"/>
<path d="M230.805 46.0362L192.553 32.9655L200.511 32.9884L204.463 33.0032L230.805 46.0362Z" fill="#54AA00"/>
<path d="M230.805 46.0363L204.463 33.0033L212.839 36.1349L230.953 42.9145L231.343 43.0543L234.876 44.3814L230.805 46.0363Z" fill="#53A700"/>
<path d="M230.805 46.0363L234.876 44.3814L263.544 68.8708L230.805 46.0363Z" fill="#489100"/>
<path d="M263.544 68.8707L234.876 44.3813L237.446 46.3644L238.506 47.1883L241.435 49.4503L253.43 58.7232L256.218 60.8814L260.217 63.9694L262.597 67.479L263.544 68.8707Z" fill="#458B00"/>
<path d="M230.805 46.0363L263.544 68.8707L262.721 78.7463L262.648 79.6877L262.548 80.8966L230.805 46.0363Z" fill="#4E9E00"/>
<path d="M224.157 61.1862L230.805 46.0363L262.548 80.8967L224.157 61.1862Z" fill="#50A100"/>
<path d="M224.157 61.1862L262.548 80.8966L256.452 95.4922L246.861 118.496L224.157 61.1862Z" fill="#4B9700"/>
<path d="M211.184 107.765L224.157 61.1862L246.861 118.496L211.184 107.765Z" fill="#4C9A00"/>
<path d="M173.4 99.4999L211.184 107.765L195.418 188.029L195.023 186.457L194.941 186.129L192.476 176.201L191.832 173.609L173.4 99.4999Z" fill="#4B9800"/>
<path d="M211.184 107.765L246.861 118.496L234.346 135.41L230.985 139.964L211.482 166.31L209.647 168.8L208.82 169.914L204.692 175.494L196.493 186.577L196.305 186.828L195.418 188.029L211.184 107.765Z" fill="#418400"/>
<path d="M130.665 15.4105L165.23 21.6599L142.861 24.0435L130.665 15.4105Z" fill="#64C900"/>
<path d="M142.861 24.0436L165.23 21.66L174.59 29.437L142.861 24.0436Z" fill="#63C700"/>
<path d="M174.59 29.437L165.23 21.66L166.608 22.4805L168.489 23.5838L171.576 25.4061L177.368 28.8218L179.247 29.9338L183.977 32.7255L174.59 29.437Z" fill="#52A400"/>
<path d="M174.59 29.437L183.977 32.7255L189.22 37.6258L188.912 38.0508L174.59 29.437Z" fill="#51A200"/>
<path d="M189.22 37.6257L183.977 32.7255L179.247 29.9337L183.357 28.0048L191.699 34.1556L189.22 37.6257Z" fill="#5DBD00"/>
<path d="M174.59 29.437L188.912 38.0508L185.742 42.4822L180.362 45.7203L174.59 29.437Z" fill="#51A300"/>
<path d="M180.362 45.7203L185.742 42.4822L182.631 46.8264L180.362 45.7203Z" fill="#4E9D00"/>
<path d="M180.362 45.7202L182.631 46.8263L181.347 48.6245L177.85 45.5367L180.362 45.7202Z" fill="#55AC00"/>
<path d="M174.59 29.437L180.362 45.7203L177.85 45.5367L156.181 43.9617L174.59 29.437Z" fill="#60C100"/>
<path d="M142.861 24.0436L174.59 29.437L156.181 43.9617L142.861 24.0436Z" fill="#63C600"/>
<path d="M130.665 15.4105L142.861 24.0436L115.835 33.0227L130.665 15.4105Z" fill="#70E000"/>
<path d="M142.861 24.0436L156.181 43.9617L150.522 46.1815L142.738 49.2595L137.895 51.1653L137.515 51.3103L142.861 24.0436Z" fill="#6EDC00"/>
<path d="M101.682 24.9473L130.665 15.4105L115.835 33.0227L101.682 24.9473Z" fill="#70E000"/>
<path d="M115.835 33.0226L142.861 24.0435L137.515 51.3102L115.835 33.0226Z" fill="#6FDE00"/>
<path d="M101.682 24.9473L115.835 33.0227L82.7819 70.7427L101.682 24.9473Z" fill="#6BD700"/>
<path d="M115.835 33.0227L137.515 51.3103L123.478 63.881L118.292 68.529L103.519 81.7504L115.835 33.0227Z" fill="#6BD700"/>
<path d="M71.6346 65.2376L101.682 24.9473L82.7819 70.7427L71.6346 65.2376Z" fill="#6AD400"/>
<path d="M82.7819 70.7427L115.835 33.0227L103.519 81.7503L82.7819 70.7427Z" fill="#6BD700"/>
<path d="M71.6346 65.2375L82.7819 70.7427L58.003 142.157L71.6346 65.2375Z" fill="#5EBD00"/>
<path d="M82.7819 70.7427L103.519 81.7503L100.704 85.4935L58.003 142.157L82.7819 70.7427Z" fill="#60C000"/>
<path d="M202.262 26.8434L212.839 36.1349L204.463 33.0033L200.511 32.9884L183.357 28.0048L202.262 26.8434Z" fill="#57AF00"/>
<path d="M191.699 34.1556L183.357 28.0048L200.511 32.9884L192.553 32.9655L191.699 34.1556Z" fill="#57AF00"/>
<path d="M202.262 26.8434L183.357 28.0048L171.576 25.4061L168.489 23.5838L202.262 26.8434Z" fill="#5CBA00"/>
<path d="M183.357 28.0048L179.247 29.9338L177.368 28.8218L183.357 28.0048Z" fill="#63C700"/>
<path d="M180.954 22.0653L202.262 26.8435L168.489 23.5838L166.608 22.4806L180.954 22.0653Z" fill="#5BB800"/>
<path d="M171.576 25.406L183.357 28.0047L177.368 28.8217L171.576 25.406Z" fill="#63C700"/>
<path d="M150.522 46.1814L135.487 65.4355L142.738 49.2595L150.522 46.1814Z" fill="#52A600"/>
<path d="M142.738 49.2596L135.487 65.4355L123.502 68.9823L137.895 51.1653L142.738 49.2596Z" fill="#52A600"/>
<path d="M137.895 51.1653L123.502 68.9823L123.478 63.881L137.515 51.3103L137.895 51.1653Z" fill="#285100"/>
<path d="M123.478 63.881L123.502 68.9823L118.292 68.529L123.478 63.881Z" fill="#285100"/>
<path d="M118.292 68.529L123.502 68.9823L95.5225 125.058L100.704 85.4935L103.519 81.7504L118.292 68.529Z" fill="#285100"/>
<path d="M123.502 68.9822L135.487 65.4355L95.5225 125.057L123.502 68.9822Z" fill="#285100"/>
<path d="M273.449 41.9882L281.304 43.1831L270.537 44.7623L273.449 41.9882Z" fill="#64C900"/>
<path d="M270.537 44.7623L281.304 43.1831L269.799 45.4672L270.537 44.7623Z" fill="#65CB00"/>
<path d="M269.799 45.4673L281.304 43.1831L282.499 50.199L267.943 53.2212L267.824 53.2955L263.918 52.5524L266.89 48.2326L269.799 45.4673Z" fill="#2D5A00"/>
<path d="M244.929 39.875L247.834 39.8527L273.449 41.9882L244.929 39.875Z" fill="#64C800"/>
<path d="M244.929 39.875L273.449 41.9882L270.537 44.7623L269.799 45.4673L266.89 48.2326L244.929 39.875Z" fill="#6CD900"/>
<path d="M244.929 39.875L266.89 48.2326L242.334 46.4102L244.929 39.875Z" fill="#6DDB00"/>
<path d="M242.334 46.4103L266.89 48.2327L263.918 52.5524L260.015 58.2277L259.806 58.5285L258.981 59.0686L242.334 46.4103Z" fill="#6EDC00"/>
<path d="M242.334 46.4103L258.981 59.0686L258.716 59.2479L253.43 58.7232L241.435 49.4503L242.334 46.4103Z" fill="#6EDD00"/>
<path d="M253.43 58.7232L258.716 59.2479L256.218 60.8814L253.43 58.7232Z" fill="#68D000"/>
<path d="M242.334 46.4102L241.435 49.4503L238.506 47.1883L242.334 46.4102Z" fill="#70E100"/>
<path d="M242.334 46.4103L238.506 47.1883L237.446 46.3644L242.334 46.4103Z" fill="#70E000"/>
<path d="M244.929 39.875L242.334 46.4102L237.446 46.3643L234.876 44.3813L231.343 43.0542L244.929 39.875Z" fill="#70E000"/>
<path d="M244.929 39.875L231.343 43.0542L230.953 42.9144L244.929 39.875Z" fill="#69D200"/>
<path d="M263.918 52.5523L267.824 53.2955L260.308 58.2004L260.015 58.2277L263.918 52.5523Z" fill="#2D5A00"/>
<path d="M260.015 58.2277L260.308 58.2004L259.806 58.5282L260.015 58.2277Z" fill="#2D5A00"/>
<path d="M276.217 81.3274L273.097 91.9598L269.038 86.4701L276.217 81.3274Z" fill="#2D5A00"/>
<path d="M269.038 86.4701L273.097 91.9597L262.478 91.1735L269.038 86.4701Z" fill="#2D5A00"/>
<path d="M262.478 91.1736L273.097 91.9598L232.312 144.684L234.346 135.41L246.861 118.496L256.452 95.4923L262.478 91.1736Z" fill="#306100"/>
<path d="M234.346 135.41L232.312 144.684L230.985 139.964L234.346 135.41Z" fill="#3B7700"/>
<path d="M299.049 54.2851L301.834 53.7807L299.934 54.5512L299.049 54.2851Z" fill="#5EBD00"/>
<path d="M299.934 54.5512L301.834 53.7808L315.536 53.5898L302.881 55.4133L299.934 54.5512Z" fill="#5EBD00"/>
<path d="M302.881 55.4133L315.536 53.5898L307.242 56.7024L302.881 55.4133Z" fill="#285100"/>
<path d="M307.242 56.7024L315.536 53.5897L309.853 57.4637L307.242 56.7024Z" fill="#285100"/>
<path d="M309.853 57.4637L315.536 53.5897L347.2 60.8288L321.239 61.7811L310.016 57.5174L309.853 57.4637Z" fill="#285100"/>
<path d="M321.239 61.7811L347.2 60.8288L330.82 66.9989L328.403 64.5024L321.239 61.7811Z" fill="#285100"/>
<path d="M330.82 66.9989L347.2 60.8288L367.537 79.5433L335.091 71.4227L330.82 66.9989Z" fill="#285100"/>
<path d="M319.545 78.7959L327.03 80.1835L329.145 82.5595L332.952 95.825L319.545 78.7959Z" fill="#306100"/>
<path d="M335.091 71.4227L367.537 79.5433L345.132 81.8097L335.091 71.4227Z" fill="#285100"/>
<path d="M319.545 78.7959L332.952 95.825L338.323 114.509L335.466 113.467L319.545 78.7959Z" fill="#2C5A00"/>
<path d="M335.466 113.467L338.323 114.509L343.065 131.051L347.039 155.147L335.466 113.467Z" fill="#3D7C00"/>
<path d="M355.014 99.9198L375.94 122.975L361.373 120.789L355.014 99.9198Z" fill="#336600"/>
<path d="M361.373 120.789L375.94 122.975L361.352 162.865L365.161 133.203L361.373 120.789Z" fill="#3F8000"/>
<path d="M298.262 72.1179L283.12 76.3705L283.485 66.3402L298.262 72.1179Z" fill="white"/>
<path d="M283.485 66.3402L283.12 76.3704L269.705 71.8654L283.485 66.3402Z" fill="white"/>
<path d="M269.705 71.8657L283.12 76.3707L276.217 81.3276L269.038 86.4703L262.478 91.1737L256.452 95.4924L262.548 80.8968L262.648 79.6879L269.705 71.8657Z" fill="white"/>
<path d="M269.705 71.8653L262.72 78.7461L263.544 68.8706L262.597 67.4789L269.705 71.8653Z" fill="white"/>
<path d="M269.705 71.8655L262.597 67.479L260.217 63.9694L256.218 60.8814L258.716 59.2478L258.981 59.0686L259.806 58.5284L260.308 58.2004L267.824 53.2955L267.943 53.2211L269.705 71.8655Z" fill="white"/>
<path d="M283.485 66.3402L269.705 71.8654L267.943 53.2211L283.485 66.3402Z" fill="white"/>
<path d="M298.262 72.1181L283.485 66.3404L298.179 65.4543L298.262 72.1181Z" fill="white"/>
<path d="M283.485 66.3405L267.943 53.2214L282.499 50.1992L284.046 49.8714L283.485 66.3405Z" fill="white"/>
<path d="M298.179 65.4543L283.485 66.3404L284.046 49.8713L298.179 65.4543Z" fill="white"/>
<path d="M298.262 72.118L298.179 65.4542L314.019 71.9015L312.548 71.9269L298.262 72.118Z" fill="white"/>
<path d="M298.179 65.4543L284.046 49.8713L299.049 54.2853L299.934 54.5513L302.881 55.4135L307.242 56.7026L309.853 57.4639L310.016 57.5176L298.179 65.4543Z" fill="white"/>
<path d="M321.322 73.7506L298.179 65.4542L310.016 57.5174L321.322 73.7506Z" fill="white"/>
<path d="M314.019 71.9014L322.011 74.539L327.03 80.1834L319.544 78.7958L312.548 71.9267L314.019 71.9014Z" fill="white"/>
<path d="M321.322 73.7507L310.016 57.5176L328.045 78.7277L321.322 73.7507Z" fill="white"/>
<path d="M328.045 78.7277L310.016 57.5176L346.77 83.5074L328.045 78.7277Z" fill="white"/>
<path d="M321.322 73.7507L328.045 78.7277L329.145 82.5597L327.03 80.1837L322.011 74.5392L321.322 73.7507Z" fill="white"/>
<path d="M346.77 83.5074L310.016 57.5176L321.24 61.7813L328.403 64.5026L330.82 66.9991L335.091 71.4229L345.132 81.8098L346.77 83.5074Z" fill="white"/>
<path d="M328.045 78.7274L346.77 83.5071L359.872 131.565L328.045 78.7274Z" fill="white"/>
<path d="M359.872 131.565L346.77 83.5073L365.161 133.203L359.872 131.565Z" fill="white"/>
<path d="M328.045 78.7274L359.872 131.565L343.065 131.051L338.323 114.509L332.952 95.8248L329.146 82.5594L328.045 78.7274Z" fill="white"/>
<path d="M343.065 131.051L359.872 131.565L355.637 207.409L347.039 155.147L343.065 131.051Z" fill="white"/>
<path d="M365.161 133.203L346.77 83.5073L353.135 93.7392L355.014 99.9199L361.373 120.789L365.161 133.203Z" fill="white"/>
<path d="M353.135 93.7394L346.77 83.5075L345.132 81.8099L367.537 79.5435L375.94 122.975L355.014 99.9201L353.135 93.7394Z" fill="white"/>
<path d="M359.872 131.565L365.161 133.203L361.352 162.865L355.637 207.409L359.872 131.565Z" fill="white"/>
<path d="M173.4 99.4998L181.229 48.7902L211.184 107.765L173.4 99.4998Z" fill="white"/>
<path d="M211.184 107.765L181.229 48.7902L224.157 61.1861L211.184 107.765Z" fill="white"/>
<path d="M224.157 61.1862L181.229 48.7903L181.347 48.6247L182.631 46.8264L185.741 42.4822L188.912 38.0509L189.22 37.6258L191.699 34.1557L192.553 32.9656L224.157 61.1862Z" fill="white"/>
<path d="M224.158 61.1862L192.553 32.9656L230.805 46.0364L224.158 61.1862Z" fill="white"/>
<path d="M230.805 46.0364L192.553 32.9656L200.511 32.9885L204.463 33.0033L230.805 46.0364Z" fill="white"/>
<path d="M230.805 46.0363L204.463 33.0033L212.839 36.1349L230.953 42.9145L231.343 43.0543L234.876 44.3814L230.805 46.0363Z" fill="white"/>
<path d="M230.805 46.0364L234.876 44.3815L263.544 68.8709L230.805 46.0364Z" fill="white"/>
<path d="M263.544 68.871L234.876 44.3816L237.446 46.3646L238.506 47.1885L241.435 49.4505L253.43 58.7234L256.218 60.8816L260.217 63.9697L262.597 67.4793L263.544 68.871Z" fill="white"/>
<path d="M224.158 61.1864L230.805 46.0366L262.549 80.8969L224.158 61.1864Z" fill="white"/>
<path d="M224.158 61.1864L262.549 80.8969L256.453 95.4925L246.861 118.496L224.158 61.1864Z" fill="white"/>
<path d="M211.184 107.765L224.157 61.1863L246.861 118.496L211.184 107.765Z" fill="white"/>
<path d="M173.4 99.4998L211.184 107.764L195.418 188.029L195.023 186.457L194.941 186.129L192.476 176.201L191.833 173.608L173.4 99.4998Z" fill="white"/>
<path d="M211.184 107.765L246.861 118.496L234.346 135.41L230.985 139.964L211.482 166.31L209.648 168.8L208.82 169.914L204.692 175.494L196.493 186.577L196.305 186.828L195.418 188.029L211.184 107.765Z" fill="white"/>
<path d="M130.665 15.4107L165.23 21.6602L142.861 24.0438L130.665 15.4107Z" fill="white"/>
<path d="M142.861 24.0437L165.23 21.6601L174.59 29.4371L142.861 24.0437Z" fill="white"/>
<path d="M174.59 29.437L165.23 21.66L166.608 22.4805L168.489 23.5838L171.575 25.4061L177.368 28.8218L179.247 29.9338L183.977 32.7255L174.59 29.437Z" fill="white"/>
<path d="M189.22 37.6256L183.977 32.7254L179.247 29.9336L183.357 28.0047L191.699 34.1555L189.22 37.6256Z" fill="white"/>
<path d="M174.59 29.4371L188.912 38.0509L185.741 42.4823L180.362 45.7204L174.59 29.4371Z" fill="white"/>
<path d="M174.59 29.4372L180.362 45.7205L177.85 45.537L156.181 43.9619L174.59 29.4372Z" fill="white"/>
<path d="M142.861 24.0437L174.59 29.4371L156.181 43.9618L142.861 24.0437Z" fill="white"/>
<path d="M130.665 15.4106L142.861 24.0437L115.835 33.0228L130.665 15.4106Z" fill="white"/>
<path d="M142.861 24.0435L156.181 43.9616L150.522 46.1814L142.738 49.2594L137.895 51.1652L137.515 51.3101L142.861 24.0435Z" fill="white"/>
<path d="M101.683 24.9474L130.665 15.4106L115.835 33.0228L101.683 24.9474Z" fill="white"/>
<path d="M115.835 33.0226L142.861 24.0435L137.515 51.3102L115.835 33.0226Z" fill="white"/>
<path d="M101.682 24.9472L115.835 33.0226L82.7817 70.7426L101.682 24.9472Z" fill="white"/>
<path d="M115.835 33.0229L137.514 51.3104L123.478 63.8812L118.292 68.5291L103.519 81.7505L115.835 33.0229Z" fill="white"/>
<path d="M71.6346 65.2376L101.682 24.9473L82.7819 70.7427L71.6346 65.2376Z" fill="white"/>
<path d="M82.7816 70.7428L115.835 33.0228L103.519 81.7504L82.7816 70.7428Z" fill="white"/>
<path d="M71.6346 65.2377L82.7819 70.7428L58.003 142.157L71.6346 65.2377Z" fill="white"/>
<path d="M82.782 70.7424L103.519 81.7501L100.704 85.4932L58.0031 142.157L82.782 70.7424Z" fill="white"/>
<path d="M202.262 26.8434L212.839 36.1349L204.463 33.0033L200.511 32.9884L183.357 28.0048L202.262 26.8434Z" fill="white"/>
<path d="M191.699 34.1555L183.357 28.0046L200.511 32.9883L192.553 32.9654L191.699 34.1555Z" fill="white"/>
<path d="M202.262 26.8434L183.357 28.0048L171.576 25.4061L168.489 23.5838L202.262 26.8434Z" fill="white"/>
<path d="M180.954 22.0651L202.262 26.8432L168.489 23.5836L166.608 22.4803L180.954 22.0651Z" fill="white"/>
<path d="M171.576 25.4061L183.357 28.0049L177.368 28.8218L171.576 25.4061Z" fill="white"/>
<path d="M142.738 49.2594L135.487 65.4354L123.502 68.9822L137.895 51.1652L142.738 49.2594Z" fill="white"/>
<path d="M137.895 51.1651L123.502 68.982L123.478 63.8808L137.514 51.31L137.895 51.1651Z" fill="white"/>
<path d="M123.478 63.8811L123.502 68.9824L118.292 68.5291L123.478 63.8811Z" fill="white"/>
<path d="M118.293 68.529L123.502 68.9823L95.5226 125.058L100.704 85.4935L103.519 81.7504L118.293 68.529Z" fill="white"/>
<path d="M123.502 68.982L135.487 65.4352L95.5223 125.057L123.502 68.982Z" fill="white"/>
<path d="M270.537 44.7623L281.304 43.1831L269.799 45.4672L270.537 44.7623Z" fill="white"/>
<path d="M269.8 45.4673L281.304 43.1831L282.499 50.199L267.943 53.2212L267.825 53.2955L263.918 52.5524L266.89 48.2326L269.8 45.4673Z" fill="white"/>
<path d="M244.929 39.8749L273.449 41.9881L270.538 44.7622L269.8 45.4671L266.89 48.2325L244.929 39.8749Z" fill="white"/>
<path d="M244.929 39.8751L266.89 48.2327L242.334 46.4104L244.929 39.8751Z" fill="white"/>
<path d="M242.334 46.4106L266.89 48.2329L263.918 52.5526L260.015 58.228L259.806 58.5288L258.981 59.0689L242.334 46.4106Z" fill="white"/>
<path d="M242.334 46.4104L258.981 59.0688L258.716 59.248L253.43 58.7233L241.435 49.4504L242.334 46.4104Z" fill="white"/>
<path d="M253.43 58.723L258.716 59.2477L256.218 60.8812L253.43 58.723Z" fill="white"/>
<path d="M242.334 46.4104L238.506 47.1884L237.445 46.3645L242.334 46.4104Z" fill="white"/>
<path d="M244.929 39.8751L242.334 46.4104L237.446 46.3645L234.876 44.3814L231.343 43.0543L244.929 39.8751Z" fill="white"/>
<path d="M263.918 52.5522L267.824 53.2954L260.308 58.2003L260.015 58.2276L263.918 52.5522Z" fill="white"/>
<path d="M276.217 81.3274L273.097 91.9598L269.038 86.4701L276.217 81.3274Z" fill="white"/>
<path d="M269.038 86.47L273.097 91.9596L262.478 91.1734L269.038 86.47Z" fill="white"/>
<path d="M262.478 91.1737L273.097 91.9599L232.312 144.684L234.346 135.41L246.861 118.496L256.452 95.4924L262.478 91.1737Z" fill="white"/>
<path d="M234.346 135.41L232.312 144.684L230.985 139.964L234.346 135.41Z" fill="white"/>
<path d="M299.934 54.5513L301.834 53.7809L315.536 53.5899L302.881 55.4134L299.934 54.5513Z" fill="white"/>
<path d="M302.882 55.4135L315.536 53.5899L307.242 56.7026L302.882 55.4135Z" fill="white"/>
<path d="M309.853 57.4638L315.536 53.5899L347.2 60.8289L321.239 61.7812L310.016 57.5175L309.853 57.4638Z" fill="white"/>
<path d="M321.239 61.7812L347.2 60.8289L330.82 66.9991L328.403 64.5025L321.239 61.7812Z" fill="white"/>
<path d="M330.82 66.9991L347.2 60.8289L367.537 79.5434L335.091 71.4228L330.82 66.9991Z" fill="white"/>
<path d="M319.544 78.796L327.03 80.1836L329.145 82.5596L332.952 95.8251L319.544 78.796Z" fill="white"/>
<path d="M335.091 71.4227L367.537 79.5433L345.132 81.8097L335.091 71.4227Z" fill="white"/>
<path d="M319.544 78.796L332.952 95.8251L338.323 114.51L335.466 113.467L319.544 78.796Z" fill="white"/>
<path d="M335.466 113.466L338.323 114.509L343.065 131.051L347.039 155.147L335.466 113.466Z" fill="white"/>
<path d="M355.014 99.9198L375.94 122.975L361.373 120.789L355.014 99.9198Z" fill="white"/>
<path d="M361.373 120.789L375.94 122.975L361.352 162.865L365.161 133.203L361.373 120.789Z" fill="white"/>
<path d="M269.705 71.8657L262.648 79.6879L262.72 78.7465L269.705 71.8657Z" fill="white"/>
<path d="M314.019 71.9015L298.179 65.4542L321.322 73.7507L314.019 71.9015Z" fill="white"/>
<path d="M314.019 71.9014L321.322 73.7505L322.011 74.539L314.019 71.9014Z" fill="white"/>
<path d="M230.805 46.0365L263.544 68.8709L262.72 78.7465L262.648 79.6879L262.548 80.8968L230.805 46.0365Z" fill="white"/>
<path d="M174.59 29.4371L183.977 32.7256L189.22 37.6259L188.912 38.0509L174.59 29.4371Z" fill="white"/>
<path d="M180.362 45.7202L185.741 42.4821L182.631 46.8263L180.362 45.7202Z" fill="white"/>
<path d="M180.362 45.7204L182.631 46.8265L181.347 48.6248L177.85 45.5369L180.362 45.7204Z" fill="white"/>
<path d="M183.357 28.0046L179.247 29.9335L177.368 28.8216L183.357 28.0046Z" fill="white"/>
<path d="M150.522 46.1816L135.487 65.4356L142.738 49.2596L150.522 46.1816Z" fill="white"/>
<path d="M273.449 41.9882L281.304 43.1831L270.537 44.7623L273.449 41.9882Z" fill="white"/>
<path d="M244.929 39.8749L247.834 39.8526L273.449 41.9881L244.929 39.8749Z" fill="white"/>
<path d="M242.334 46.4105L241.435 49.4505L238.506 47.1885L242.334 46.4105Z" fill="white"/>
<path d="M244.929 39.8751L231.343 43.0543L230.953 42.9146L244.929 39.8751Z" fill="white"/>
<path d="M299.049 54.2851L301.834 53.7807L299.934 54.5512L299.049 54.2851Z" fill="white"/>
<path d="M307.242 56.7026L315.536 53.5899L309.853 57.4639L307.242 56.7026Z" fill="white"/>
</g>
<defs>
<linearGradient id="paint0_linear_2_3901" x1="338.898" y1="350.191" x2="314.797" y2="460.615" gradientUnits="userSpaceOnUse">
<stop stop-color="#1C52E8"/>
<stop offset="1" stop-color="#DA2E20"/>
</linearGradient>
<clipPath id="clip0_2_3901">
<rect width="469.544" height="401.161" fill="white" transform="translate(85.7627 0.505371) rotate(12.312)"/>
</clipPath>
</defs>
</svg>
