<svg width="740" height="400" viewBox="0 0 740 400" fill="none" xmlns="http://www.w3.org/2000/svg">
<path d="M63.3725 105.951L87.262 108.251L89.2249 87.8654L77.2802 86.7153L72.9623 81.4773L73.5604 75.266L88.0521 63.32L115.605 65.973L119.923 71.211L119.125 79.4927L141.9 81.6856L143.602 64.0074L129.512 46.7374L78.0703 41.7841L51.6905 63.6765L49.2829 88.6809L63.3725 105.951ZM58.8946 152.456L134.385 159.725L139.308 108.601L125.218 91.3312L101.329 89.0309L99.366 109.417L111.311 110.567L115.629 115.805L113.574 137.146L72.8022 133.22L68.4844 127.982L69.2818 119.701L46.5072 117.508L44.805 135.186L58.8946 152.456Z" fill="#0E2C64"/>
<path d="M183.593 172.5L206.367 174.693L215.446 80.4088L220.684 76.091L243.299 78.2686L259.707 98.1728L256.701 129.388L242.035 141.478L221.968 139.546L220.005 159.932L252.017 163.014L278.571 140.978L283.386 90.9693L256.888 59.0024L210.861 54.5704L193.576 68.8193L183.593 172.5Z" fill="#0E2C64"/>
<path d="M343.588 179.869L381.652 183.534L383.615 163.148L357.177 160.602L350.844 152.92L354.325 116.767L384.531 91.8677L397.75 93.1405L402.068 98.3785L393.756 184.699L416.531 186.892L425.747 91.1749L411.657 73.9049L374.549 70.3318L332.455 105.178L327.165 160.124L343.588 179.869Z" fill="#0E2C64"/>
<path d="M484.66 193.452L557.603 200.476L559.566 180.09L498.25 174.186L491.917 166.504L495.398 130.351L525.603 105.451L538.822 106.724L543.14 111.962L542.343 120.244L565.117 122.437L566.82 104.759L552.73 87.4887L515.622 83.9155L473.528 118.761L468.237 173.707L484.66 193.452Z" fill="#0E2C64"/>
<path d="M625.733 207.036L698.676 214.06L700.638 193.674L639.322 187.77L632.989 180.087L636.47 143.935L666.676 119.035L679.895 120.308L684.213 125.546L681.452 154.213L676.23 158.372L647.562 155.612L645.599 175.997L686.052 179.892L703.322 165.803L707.892 118.342L693.802 101.072L656.694 97.4993L614.6 132.345L609.31 187.291L625.733 207.036Z" fill="#0E2C64"/>
<path d="M54.8366 219.295L82.3891 221.948L91.821 210.8L98.9525 223.542L126.505 226.195L103.702 185.904L84.9088 184.095L54.8366 219.295Z" fill="#0E2C64"/>
<path d="M189.453 259.743L213.343 262.043L215.306 241.658L203.361 240.508L199.043 235.27L199.641 229.058L214.133 217.112L241.685 219.765L246.003 225.003L245.206 233.285L267.98 235.478L269.683 217.8L255.593 200.53L204.151 195.576L177.771 217.469L175.364 242.473L189.453 259.743ZM184.975 306.248L260.466 313.517L265.389 262.393L251.299 245.124L227.41 242.823L225.447 263.209L237.392 264.359L241.709 269.597L239.654 290.938L198.883 287.013L194.565 281.775L195.363 273.493L172.588 271.3L170.886 288.978L184.975 306.248Z" fill="#0E2C64"/>
<path d="M316.44 318.329L339.215 320.522L350.716 201.074L327.942 198.881L316.44 318.329ZM384.764 324.908L407.539 327.101L414.256 257.343L383.902 220.344L361.287 218.166L359.324 238.552L369.994 239.579L390.576 264.547L384.764 324.908Z" fill="#0E2C64"/>
<path d="M465.099 240.507L546.164 248.313L548.127 227.927L467.062 220.122L465.099 240.507ZM456.327 331.606L537.392 339.412L539.355 319.026L510.21 316.22L515.976 256.337L493.202 254.144L487.435 314.027L458.29 311.22L456.327 331.606Z" fill="#0E2C64"/>
<path d="M593.332 351.872L616.107 354.065L625.185 259.781L630.423 255.463L653.039 257.641L669.446 277.545L666.441 308.761L651.774 320.851L631.707 318.919L629.744 339.304L661.756 342.387L688.311 320.35L693.126 270.342L666.628 238.375L620.601 233.943L603.315 248.192L593.332 351.872Z" fill="#0E2C64"/>
</svg>
