<svg width="368" height="250" viewBox="0 0 368 250" fill="none" xmlns="http://www.w3.org/2000/svg">
<path d="M116.955 69.4C116.955 70.4667 116.422 71 115.355 71C114.888 71 114.488 70.8667 114.155 70.6C113.822 70.2667 113.655 69.8667 113.655 69.4V45.3C113.655 44.7667 113.822 44.3667 114.155 44.1C114.488 43.7667 114.888 43.6 115.355 43.6C116.422 43.6 116.955 44.1667 116.955 45.3V69.4ZM122.655 27.3V11.7C122.655 11.2333 122.822 10.8333 123.155 10.5C123.488 10.1667 123.888 10 124.355 10H142.855C143.388 10 143.788 10.1667 144.055 10.5C144.388 10.8333 144.555 11.2333 144.555 11.7C144.555 12.7667 143.988 13.3 142.855 13.3H125.955V27.3C125.955 28.3667 125.422 28.9 124.355 28.9C123.888 28.9 123.488 28.7667 123.155 28.5C122.822 28.1667 122.655 27.7667 122.655 27.3ZM107.555 10C108.022 10 108.388 10.1667 108.655 10.5C108.988 10.8333 109.155 11.2333 109.155 11.7C109.155 12.7667 108.622 13.3 107.555 13.3H95.3549C94.2215 13.3 93.6549 12.7667 93.6549 11.7C93.6549 11.2333 93.7882 10.8333 94.0549 10.5C94.3882 10.1667 94.8215 10 95.3549 10H107.555ZM116.855 2.89999V34.5H124.355C124.822 34.5 125.188 34.6667 125.455 35C125.788 35.3333 125.955 35.7333 125.955 36.2V61.7C125.955 62.8333 125.422 63.4 124.355 63.4C123.888 63.4 123.488 63.2667 123.155 63C122.822 62.6667 122.655 62.2333 122.655 61.7V37.8H115.255C114.788 37.8 114.388 37.6667 114.055 37.4C113.722 37.0667 113.555 36.6667 113.555 36.2V4.5H95.3549C94.2215 4.5 93.6549 3.96666 93.6549 2.89999C93.6549 1.76666 94.2215 1.2 95.3549 1.2H115.255C116.322 1.2 116.855 1.76666 116.855 2.89999ZM124.355 1.2H137.355C138.422 1.2 138.955 1.76666 138.955 2.89999C138.955 3.96666 138.422 4.5 137.355 4.5H124.355C123.888 4.5 123.488 4.36666 123.155 4.1C122.822 3.76666 122.655 3.36666 122.655 2.89999C122.655 2.36666 122.822 1.96667 123.155 1.7C123.488 1.36667 123.888 1.2 124.355 1.2ZM143.455 1.09999C143.988 1.23333 144.355 1.53333 144.555 1.99999C144.755 2.46666 144.788 2.93333 144.655 3.39999H144.555C144.355 4.26666 143.788 4.7 142.855 4.7C142.122 4.43333 141.622 4.1 141.355 3.7C141.088 3.23333 141.022 2.76666 141.155 2.3L141.255 2.2C141.455 1.4 142.022 0.999995 142.955 0.999995C143.222 0.999995 143.388 1.03333 143.455 1.09999ZM171.127 48.7C171.127 47.6333 171.693 47.1 172.827 47.1C173.893 47.1 174.427 47.6333 174.427 48.7V69C174.427 70.0667 173.893 70.6 172.827 70.6C171.693 70.6 171.127 70.0667 171.127 69V48.7ZM201.927 25.9C200.86 25.9 200.327 25.3667 200.327 24.3V3.1C200.327 2.63333 200.46 2.23333 200.727 1.9C201.06 1.56666 201.46 1.4 201.927 1.4C202.46 1.4 202.86 1.56666 203.127 1.9C203.46 2.23333 203.627 2.63333 203.627 3.1V24.3C203.627 25.3667 203.06 25.9 201.927 25.9ZM210.827 70.3C210.36 70.3 209.96 70.1333 209.627 69.8C209.36 69.4667 209.227 69.0667 209.227 68.6V10C209.227 8.93333 209.76 8.4 210.827 8.4C211.293 8.4 211.693 8.56666 212.027 8.89999C212.36 9.16666 212.527 9.53333 212.527 10V68.6C212.527 69.0667 212.36 69.4667 212.027 69.8C211.693 70.1333 211.293 70.3 210.827 70.3ZM172.827 33.8C172.293 33.8 171.86 33.6333 171.527 33.3C171.26 32.9667 171.127 32.5667 171.127 32.1V3C171.127 1.93333 171.693 1.4 172.827 1.4C173.893 1.4 174.427 1.93333 174.427 3V30.5H201.927C203.06 30.5 203.627 31.0333 203.627 32.1V62.9C203.627 63.3667 203.46 63.7667 203.127 64.1C202.86 64.4333 202.46 64.6 201.927 64.6C201.46 64.6 201.06 64.4333 200.727 64.1C200.46 63.7667 200.327 63.3667 200.327 62.9V33.8H172.827ZM163.927 33.7C163.46 33.7 163.06 33.5667 162.727 33.3C162.393 32.9667 162.227 32.5667 162.227 32.1V3C162.227 2.53333 162.393 2.16666 162.727 1.9C163.06 1.56666 163.46 1.4 163.927 1.4C164.993 1.4 165.527 1.93333 165.527 3V32.1C165.527 33.1667 164.993 33.7 163.927 33.7ZM163.927 70.3C163.46 70.3 163.06 70.1333 162.727 69.8C162.393 69.4667 162.227 69.0667 162.227 68.6V41.2C162.227 40.7333 162.393 40.3333 162.727 40C163.06 39.6667 163.46 39.5 163.927 39.5H194.027C194.493 39.5 194.86 39.6667 195.127 40C195.46 40.3333 195.627 40.7333 195.627 41.2C195.627 42.2667 195.093 42.8 194.027 42.8H165.527V68.6C165.527 69.0667 165.36 69.4667 165.027 69.8C164.76 70.1333 164.393 70.3 163.927 70.3ZM202.627 66.7C203.093 66.9 203.427 67.2333 203.627 67.7C203.827 68.1 203.86 68.5333 203.727 69V69.1C203.393 69.9 202.827 70.3 202.027 70.3C201.293 70.1 200.793 69.7667 200.527 69.3C200.26 68.8333 200.193 68.3667 200.327 67.9C200.527 67.0333 201.093 66.6 202.027 66.6C202.16 66.6 202.26 66.6333 202.327 66.7C202.393 66.7 202.493 66.7 202.627 66.7ZM234.853 71.2C234.386 71.2 233.986 71.0333 233.653 70.7C233.32 70.3667 233.153 69.9667 233.153 69.5V40.5C233.153 40.0333 233.32 39.6333 233.653 39.3C233.986 38.9667 234.386 38.8 234.853 38.8H262.153C262.62 38.8 263.02 38.9667 263.353 39.3C263.686 39.6333 263.853 40.0333 263.853 40.5C263.853 40.9667 263.686 41.3667 263.353 41.7C263.02 41.9667 262.62 42.1 262.153 42.1H236.453V67.9H271.153C272.22 67.9 272.753 68.4333 272.753 69.5C272.753 69.9667 272.586 70.3667 272.253 70.7C271.986 71.0333 271.62 71.2 271.153 71.2H234.853ZM234.853 33.4C234.386 33.4 233.986 33.2333 233.653 32.9C233.32 32.5667 233.153 32.1667 233.153 31.7V2.49999C233.153 2.03333 233.32 1.63333 233.653 1.3C233.986 0.966664 234.386 0.799998 234.853 0.799998C235.32 0.799998 235.686 0.966664 235.953 1.3C236.286 1.63333 236.453 2.03333 236.453 2.49999V30.1H262.153C262.62 30.1 263.02 30.2667 263.353 30.6C263.686 30.8667 263.853 31.2333 263.853 31.7C263.853 32.1667 263.686 32.5667 263.353 32.9C263.02 33.2333 262.62 33.4 262.153 33.4H234.853ZM270.953 9.8C271.42 9.8 271.82 9.96666 272.153 10.3C272.486 10.6333 272.653 11.0333 272.653 11.5C272.653 11.9667 272.486 12.3667 272.153 12.7C271.82 12.9667 271.42 13.1 270.953 13.1H245.053V24.3C245.053 24.7667 244.886 25.1667 244.553 25.5C244.22 25.8333 243.82 26 243.353 26C242.886 26 242.486 25.8333 242.153 25.5C241.886 25.1667 241.753 24.7667 241.753 24.3V11.5C241.753 11.0333 241.886 10.6333 242.153 10.3C242.486 9.96666 242.886 9.8 243.353 9.8H270.953ZM243.053 4.4C242.586 4.4 242.186 4.23333 241.853 3.9C241.586 3.56666 241.453 3.16666 241.453 2.7C241.453 1.63333 241.986 1.09999 243.053 1.09999H271.153C271.62 1.09999 272.02 1.26666 272.353 1.6C272.686 1.86666 272.853 2.23333 272.853 2.7C272.853 3.16666 272.686 3.56666 272.353 3.9C272.02 4.23333 271.62 4.4 271.153 4.4H243.053ZM243.353 45.9C243.82 45.9 244.22 46.0667 244.553 46.4C244.886 46.6667 245.053 47.0667 245.053 47.6V59.4H265.053C265.52 59.4 265.92 59.5667 266.253 59.9C266.586 60.2333 266.753 60.6333 266.753 61.1C266.753 61.5667 266.586 61.9667 266.253 62.3C265.92 62.5667 265.52 62.7 265.053 62.7H243.353C242.286 62.7 241.753 62.1667 241.753 61.1V47.6C241.753 46.4667 242.286 45.9 243.353 45.9ZM271.253 59.3C271.72 59.4333 272.053 59.7333 272.253 60.2C272.453 60.6 272.486 61.0333 272.353 61.5V61.6C272.02 62.4 271.453 62.8 270.653 62.8C269.92 62.6 269.42 62.3 269.153 61.9C268.886 61.4333 268.82 60.9333 268.953 60.4C269.286 59.6 269.853 59.2 270.653 59.2C270.92 59.2 271.12 59.2333 271.253 59.3ZM18.364 244.2C18.364 243.267 18.6973 242.533 19.364 242C20.0306 241.333 20.8306 241 21.764 241H70.964C73.0973 241 74.164 242.067 74.164 244.2C74.164 245.133 73.8306 245.933 73.164 246.6C72.6306 247.267 71.8973 247.6 70.964 247.6H21.764C20.8306 247.6 20.0306 247.267 19.364 246.6C18.6973 245.933 18.364 245.133 18.364 244.2ZM3.36396 230.2C1.23062 230.2 0.163956 229.133 0.163956 227V111.2C0.163956 109.067 1.23062 108 3.36396 108C5.63062 108 6.76396 109.067 6.76396 111.2V223.6H59.964C61.0306 223.6 61.8306 223.933 62.364 224.6C63.0306 225.267 63.364 226.067 63.364 227C63.364 229.133 62.2306 230.2 59.964 230.2H3.36396ZM18.164 129.2C18.164 127.067 19.2306 126 21.364 126C22.2973 126 23.0973 126.333 23.764 127C24.4306 127.533 24.764 128.267 24.764 129.2V211C24.764 211.933 24.4306 212.733 23.764 213.4C23.0973 213.933 22.2973 214.2 21.364 214.2C19.2306 214.2 18.164 213.133 18.164 211V129.2ZM71.164 230.6C69.6973 230.2 68.6973 229.533 68.164 228.6C67.6306 227.667 67.4973 226.733 67.764 225.8V225.6C68.4306 224 69.564 223.2 71.164 223.2C71.4306 223.2 71.6306 223.267 71.764 223.4C71.8973 223.4 72.0973 223.4 72.364 223.4C73.4306 223.667 74.164 224.267 74.564 225.2C74.964 226.133 74.964 227.067 74.564 228V228.2C74.164 229.8 73.0306 230.6 71.164 230.6ZM99.313 248.8C96.6463 248 95.6463 246.533 96.313 244.4L145.513 112.2C146.18 110.733 147.246 110 148.713 110H151.513C152.98 110 154.046 110.733 154.713 112.2L178.513 184.8C178.78 185.733 178.713 186.6 178.313 187.4C177.913 188.2 177.246 188.733 176.313 189C176.046 189 175.846 189.067 175.713 189.2C175.713 189.2 175.58 189.2 175.313 189.2C173.846 189.2 172.78 188.4 172.113 186.8L149.913 119.2L102.513 246.8C101.846 248.133 100.78 248.8 99.313 248.8ZM212.513 248.8C211.046 248.8 209.98 248.133 209.313 246.8L193.313 203.2H148.913C147.846 203.2 146.98 202.867 146.313 202.2C145.78 201.533 145.513 200.733 145.513 199.8C145.513 197.667 146.646 196.6 148.913 196.6H195.713C197.046 196.6 198.046 197.2 198.713 198.4L215.513 244.4C216.18 246.533 215.513 247.933 213.513 248.6L212.513 248.8ZM121.713 238.2C119.046 237.4 118.046 235.933 118.713 233.8L146.513 151.8C147.313 150.333 148.38 149.6 149.713 149.6C149.98 149.6 150.18 149.667 150.313 149.8C150.446 149.8 150.58 149.8 150.713 149.8C151.646 150.067 152.313 150.667 152.713 151.6C153.113 152.4 153.18 153.2 152.913 154L124.913 236C124.246 237.467 123.18 238.2 121.713 238.2ZM191.113 238C189.513 238 188.513 237.267 188.113 235.8L183.113 220.8H143.313C142.38 220.8 141.58 220.467 140.913 219.8C140.38 219.133 140.113 218.333 140.113 217.4C140.113 215.267 141.18 214.2 143.313 214.2H185.513C186.98 214.2 188.046 214.933 188.713 216.4L194.313 233.8C194.58 234.6 194.513 235.4 194.113 236.2C193.713 237 193.046 237.533 192.113 237.8L191.113 238ZM190.513 189C189.046 189 187.98 188.267 187.313 186.8L167.313 125.4C166.646 123.267 167.313 121.867 169.313 121.2C169.58 121.067 169.913 121 170.313 121C171.913 121 172.98 121.733 173.513 123.2L193.713 184.6C193.98 185.533 193.913 186.4 193.513 187.2C193.113 188 192.446 188.533 191.513 188.8L190.513 189ZM118.113 249.2C116.646 248.8 115.646 248.2 115.113 247.4C114.58 246.467 114.446 245.467 114.713 244.4C115.38 242.667 116.513 241.8 118.113 241.8C118.38 241.8 118.58 241.867 118.713 242C118.846 242 119.046 242 119.313 242C120.246 242.4 120.913 243.067 121.313 244C121.713 244.8 121.78 245.667 121.513 246.6V246.8C120.846 248.4 119.713 249.2 118.113 249.2ZM237.849 178.2C237.849 171.8 238.65 165.467 240.25 159.2C241.983 152.933 244.383 147.067 247.449 141.6C250.65 136 254.516 130.933 259.049 126.4C263.583 121.867 268.716 118.133 274.45 115.2C274.716 114.933 275.25 114.8 276.05 114.8C277.25 114.8 278.183 115.333 278.85 116.4C279.383 117.333 279.45 118.267 279.05 119.2C278.783 120 278.25 120.6 277.45 121C272.25 123.8 267.583 127.267 263.449 131.4C259.316 135.4 255.85 139.933 253.05 145C250.25 149.933 248.116 155.267 246.649 161C245.183 166.6 244.449 172.333 244.449 178.2C244.449 186.333 245.85 194.267 248.65 202C251.583 209.6 255.583 216.333 260.649 222.2C265.85 228.067 271.983 232.8 279.05 236.4C286.25 239.867 294.116 241.6 302.65 241.6C311.183 241.6 318.983 239.867 326.05 236.4C333.116 232.8 339.183 228.067 344.25 222.2C349.45 216.2 353.45 209.4 356.25 201.8C359.183 194.2 360.649 186.333 360.649 178.2C360.649 170.333 359.316 162.733 356.65 155.4C353.983 147.933 350.25 141.333 345.45 135.6C340.65 129.733 334.85 124.933 328.05 121.2C321.383 117.467 313.983 115.333 305.85 114.8V129C305.85 131.133 304.783 132.2 302.65 132.2C296.516 132.2 290.916 133.467 285.85 136C280.783 138.533 276.45 141.933 272.85 146.2C269.383 150.467 266.65 155.333 264.65 160.8C262.783 166.267 261.85 171.933 261.85 177.8C261.85 183.533 262.783 189.133 264.65 194.6C266.65 200.067 269.45 204.933 273.05 209.2C276.65 213.467 280.916 216.867 285.85 219.4C290.916 221.933 296.516 223.2 302.65 223.2C308.783 223.2 314.383 221.933 319.45 219.4C324.516 216.867 328.85 213.533 332.45 209.4C336.05 205.133 338.783 200.267 340.65 194.8C342.65 189.333 343.65 183.667 343.65 177.8C343.65 168.2 341.316 159.6 336.649 152C332.116 144.4 325.916 138.867 318.05 135.4C317.25 135.133 316.65 134.6 316.25 133.8C315.983 132.867 316.05 132 316.45 131.2C316.85 129.867 317.85 129.2 319.45 129.2C319.983 129.2 320.383 129.267 320.65 129.4C325.183 131.4 329.25 134.067 332.85 137.4C336.45 140.6 339.516 144.333 342.05 148.6C344.716 152.733 346.716 157.267 348.05 162.2C349.516 167.133 350.25 172.333 350.25 177.8C350.25 184.6 349.05 191.133 346.65 197.4C344.383 203.667 341.183 209.2 337.05 214C332.916 218.8 327.916 222.667 322.05 225.6C316.183 228.4 309.716 229.8 302.65 229.8C295.583 229.8 289.116 228.333 283.25 225.4C277.516 222.467 272.516 218.6 268.25 213.8C264.116 209 260.916 203.467 258.65 197.2C256.383 190.933 255.25 184.467 255.25 177.8C255.25 171.4 256.25 165.2 258.25 159.2C260.383 153.067 263.383 147.667 267.25 143C271.116 138.2 275.716 134.267 281.049 131.2C286.516 128 292.583 126.2 299.25 125.8V111.4C299.25 109.267 300.383 108.2 302.65 108.2C312.116 108.2 320.783 110.2 328.65 114.2C336.516 118.067 343.316 123.267 349.05 129.8C354.783 136.2 359.25 143.6 362.45 152C365.65 160.4 367.25 169.133 367.25 178.2C367.25 187.267 365.65 196.067 362.45 204.6C359.25 213 354.783 220.467 349.05 227C343.316 233.4 336.45 238.533 328.45 242.4C320.583 246.267 311.983 248.2 302.65 248.2C293.183 248.2 284.45 246.267 276.45 242.4C268.583 238.533 261.783 233.4 256.049 227C250.316 220.467 245.849 213 242.649 204.6C239.449 196.067 237.849 187.267 237.849 178.2ZM283.05 112.6C283.45 111 284.583 110.2 286.45 110.2C286.983 110.2 287.383 110.267 287.65 110.4C288.583 110.667 289.25 111.267 289.65 112.2C290.05 113.133 290.116 114.067 289.849 115C289.183 116.733 288.05 117.6 286.45 117.6C284.85 117.067 283.783 116.4 283.25 115.6C282.716 114.667 282.65 113.733 283.05 112.8V112.6Z" fill="white"/>
</svg>
