<svg width="680" height="134" viewBox="0 0 680 134" fill="none" xmlns="http://www.w3.org/2000/svg">
<path d="M40.9095 7.34V100.33C40.9095 103.843 40.4562 107.527 39.5495 111.38C38.5295 116.253 36.4328 120.05 33.2595 122.77C30.0862 125.377 25.9495 126.68 20.8495 126.68C16.8828 126.68 13.5962 125.943 10.9895 124.47C8.38284 122.883 6.34281 120.843 4.86948 118.35C3.39614 115.857 2.37615 112.967 1.80948 109.68C1.24281 106.393 0.959473 103.05 0.959473 99.65V7.34H14.2195V119.88C14.2195 121.807 14.8995 123.053 16.2595 123.62C17.7328 124.187 19.2628 124.47 20.8495 124.47C22.4362 124.47 23.9095 124.187 25.2695 123.62C26.7428 123.053 27.4795 121.807 27.4795 119.88V9.54999V7.34H40.9095Z" fill="black"/>
<path d="M113.81 6.99999V126H100.38V71.09C97.7736 69.05 95.2236 66.6133 92.7303 63.78C90.3503 60.9467 88.5369 58.0567 87.2903 55.11V126H73.8603V6.99999H87.2903V33.01V47.63C87.2903 49.33 87.7436 51.1433 88.6503 53.07C89.6703 54.9967 90.8603 56.8667 92.2203 58.68C93.6936 60.38 95.1669 62.0233 96.6403 63.61C98.1136 65.0833 99.3603 66.2733 100.38 67.18V6.99999H113.81Z" fill="black"/>
<path d="M159.131 126.17H145.871V6.99999H159.131V126.17Z" fill="black"/>
<path d="M217.571 38.96V13.97C217.571 12.95 217.175 11.9867 216.381 11.08C215.701 10.06 214.795 9.54999 213.661 9.54999H208.391C207.258 9.54999 206.295 10.06 205.501 11.08C204.708 11.9867 204.311 12.95 204.311 13.97V94.04C207.145 96.42 209.525 98.8567 211.451 101.35C213.491 103.843 214.511 107.073 214.511 111.04C214.511 114.327 213.661 117.047 211.961 119.2C210.261 121.353 207.938 123.053 204.991 124.3C205.331 124.3 205.615 124.357 205.841 124.47C206.181 124.47 206.521 124.47 206.861 124.47C209.695 124.47 211.848 123.847 213.321 122.6C214.795 121.24 215.815 119.597 216.381 117.67C217.061 115.63 217.401 113.42 217.401 111.04C217.515 108.66 217.571 106.393 217.571 104.24V85.54H231.001V99.31C231.001 102.71 230.718 106.053 230.151 109.34C229.585 112.627 228.508 115.517 226.921 118.01C225.448 120.503 223.408 122.543 220.801 124.13C218.195 125.603 214.908 126.34 210.941 126.34H205.331C203.291 126.34 201.421 125.943 199.721 125.15C198.021 124.357 196.491 123.337 195.131 122.09C193.885 120.73 192.865 119.2 192.071 117.5C191.391 115.687 191.051 113.817 191.051 111.89C191.051 109.963 191.731 108.32 193.091 106.96C194.565 105.487 196.265 104.75 198.191 104.75C200.118 104.75 201.761 105.487 203.121 106.96C204.595 108.32 205.331 109.963 205.331 111.89C205.331 113.817 204.595 115.517 203.121 116.99C201.761 118.463 200.118 119.2 198.191 119.2C197.058 119.2 196.038 118.973 195.131 118.52C196.038 119.653 197.115 120.617 198.361 121.41C199.608 122.09 200.968 122.43 202.441 122.43C205.388 122.43 207.768 121.353 209.581 119.2C211.395 116.933 212.301 114.383 212.301 111.55C212.301 108.83 211.565 106.507 210.091 104.58C208.618 102.54 206.805 100.783 204.651 99.31C202.611 97.7233 200.345 96.42 197.851 95.4C195.358 94.38 193.091 93.4733 191.051 92.68V34.37C191.051 30.97 191.335 27.6267 191.901 24.34C192.468 21.0533 193.488 18.1633 194.961 15.67C196.435 13.0633 198.475 11.0233 201.081 9.54999C203.688 7.96332 206.975 7.16999 210.941 7.16999C214.908 7.16999 218.138 7.96332 220.631 9.54999C223.238 11.0233 225.278 13.0633 226.751 15.67C228.338 18.1633 229.415 21.0533 229.981 24.34C230.661 27.6267 231.001 30.97 231.001 34.37V38.96H217.571Z" fill="black"/>
<path d="M288.258 128.38C287.352 129.287 286.445 130.137 285.538 130.93C284.631 131.723 283.725 132.573 282.818 133.48C282.592 133.707 282.195 133.82 281.628 133.82C281.175 133.933 280.835 133.99 280.608 133.99C279.361 133.99 278.285 133.48 277.378 132.46C276.472 131.553 276.018 130.477 276.018 129.23C276.018 127.983 276.472 126.907 277.378 126C278.398 125.093 279.531 124.64 280.778 124.64C282.251 124.64 283.441 125.263 284.348 126.51L285.198 125.32C282.252 121.127 279.531 117.16 277.038 113.42C274.658 109.567 272.562 105.543 270.748 101.35C267.462 93.0767 265.025 84.69 263.438 76.19C261.852 67.5767 261.398 59.19 262.078 51.03C262.758 42.7567 264.685 34.8233 267.858 27.23C271.031 19.6367 275.678 12.5533 281.798 5.97999C282.705 5.07333 283.555 4.22333 284.348 3.43C285.255 2.63666 286.162 1.78666 287.068 0.879989C287.295 0.653325 287.635 0.539993 288.088 0.539993C288.541 0.426661 288.881 0.369995 289.108 0.369995C290.468 0.369995 291.602 0.82333 292.508 1.73C293.415 2.52333 293.868 3.59999 293.868 4.96C293.868 6.20666 293.415 7.33999 292.508 8.35999C291.602 9.26666 290.468 9.72 289.108 9.72C287.635 9.72 286.445 9.09666 285.538 7.84999L284.518 9.20999C287.805 13.7433 290.581 17.88 292.848 21.62C295.228 25.36 297.325 29.2133 299.138 33.18C302.878 41.5667 305.542 50.0667 307.128 58.68C308.828 67.18 309.281 75.5667 308.488 83.84C307.695 92 305.598 99.8767 302.198 107.47C298.912 115.063 294.265 122.033 288.258 128.38ZM279.758 18.39C276.018 27.7967 273.808 36.6933 273.128 45.08C272.562 53.4667 272.958 61.6267 274.318 69.56C275.792 77.4933 278.058 85.2567 281.118 92.85C284.178 100.443 287.578 108.093 291.318 115.8C294.265 107.527 295.908 99.1967 296.248 90.81C296.588 82.4233 296.021 74.15 294.548 65.99C293.188 57.7167 291.148 49.6133 288.428 41.68C285.821 33.6333 282.932 25.87 279.758 18.39Z" fill="black"/>
<path d="M380.589 6.49V50.52C379.343 50.86 378.153 51.2 377.019 51.54C375.886 51.88 374.696 52.2767 373.449 52.73C370.843 53.75 368.236 55.11 365.629 56.81C363.023 58.3967 361.039 60.4933 359.679 63.1C359.339 63.6667 359.169 64.1767 359.169 64.63V65.14L359.339 65.31C359.453 65.65 359.679 65.82 360.019 65.82H360.359H360.529C360.983 65.5933 361.663 65.48 362.569 65.48C363.816 65.48 364.893 65.9333 365.799 66.84C366.706 67.6333 367.159 68.6533 367.159 69.9C367.159 71.1467 366.706 72.28 365.799 73.3C364.893 74.2067 363.816 74.66 362.569 74.66C361.209 74.66 360.189 74.32 359.509 73.64C358.829 72.8467 358.206 71.8833 357.639 70.75C357.413 70.5233 357.186 70.1267 356.959 69.56C356.733 68.88 356.676 68.37 356.789 68.03L356.619 67.69V66.84C356.619 65.14 356.903 63.61 357.469 62.25C358.149 60.89 358.999 59.7 360.019 58.68C361.039 57.5467 362.173 56.5833 363.419 55.79C364.666 54.8833 365.969 54.0333 367.329 53.24V8.69999H354.069V72.11C354.976 74.15 356.449 76.1333 358.489 78.06C360.643 79.8733 362.966 81.5167 365.459 82.99C368.066 84.35 370.673 85.4833 373.279 86.39C375.999 87.1833 378.436 87.6367 380.589 87.75V125.66H367.329V86.22C365.063 84.9733 362.683 83.6133 360.189 82.14C357.696 80.5533 355.713 78.6267 354.239 76.36C354.239 84.6333 354.183 92.85 354.069 101.01C354.069 109.17 354.069 117.387 354.069 125.66H340.809V6.49H380.589Z" fill="black"/>
<path d="M454.142 6.99999V126H440.712V71.09C438.106 69.05 435.556 66.6133 433.062 63.78C430.682 60.9467 428.869 58.0567 427.622 55.11V126H414.192V6.99999H427.622V33.01V47.63C427.622 49.33 428.076 51.1433 428.982 53.07C430.002 54.9967 431.192 56.8667 432.552 58.68C434.026 60.38 435.499 62.0233 436.972 63.61C438.446 65.0833 439.692 66.2733 440.712 67.18V6.99999H454.142Z" fill="black"/>
<path d="M508.813 7.50999C512.78 7.50999 516.01 8.30333 518.503 9.88999C521.11 11.3633 523.15 13.4033 524.623 16.01C526.21 18.5033 527.287 21.3933 527.853 24.68C528.533 27.9667 528.873 31.31 528.873 34.71V99.65C528.873 103.05 528.533 106.393 527.853 109.68C527.287 112.967 526.21 115.857 524.623 118.35C523.15 120.843 521.11 122.883 518.503 124.47C516.01 125.943 512.78 126.68 508.813 126.68H503.203C499.01 126.68 495.553 125.207 492.833 122.26C490.227 119.313 488.923 115.8 488.923 111.72C488.923 109.907 489.66 108.377 491.133 107.13C492.72 105.77 494.363 105.09 496.063 105.09C497.99 105.09 499.633 105.827 500.993 107.3C502.467 108.66 503.203 110.303 503.203 112.23C503.203 114.157 502.467 115.857 500.993 117.33C499.633 118.69 497.99 119.37 496.063 119.37C494.93 119.37 493.91 119.143 493.003 118.69C494.59 121.41 497.027 122.77 500.313 122.77C503.26 122.77 505.64 121.637 507.453 119.37C509.267 117.103 510.173 114.61 510.173 111.89C510.173 109.17 509.437 106.847 507.963 104.92C506.49 102.88 504.677 101.123 502.523 99.65C500.37 98.0633 498.047 96.76 495.553 95.74C493.173 94.72 490.963 93.8133 488.923 93.02V7.50999H508.813ZM515.443 14.31C515.443 12.0433 514.537 10.74 512.723 10.4C510.91 9.94666 509.153 9.72 507.453 9.72H502.183V94.38C505.13 96.8733 507.51 99.3667 509.323 101.86C511.25 104.24 512.213 107.413 512.213 111.38C512.213 114.78 511.42 117.557 509.833 119.71C508.247 121.75 505.867 123.393 502.693 124.64C503.033 124.64 503.373 124.697 503.713 124.81C504.053 124.81 504.393 124.81 504.733 124.81C507.567 124.81 509.72 124.187 511.193 122.94C512.667 121.58 513.687 119.937 514.253 118.01C514.933 115.97 515.273 113.76 515.273 111.38C515.387 109 515.443 106.733 515.443 104.58V14.31Z" fill="black"/>
<path d="M602.208 6.99999V126H588.778V77.55H575.688V126H562.258V40.66C566.565 40.4333 570.588 39.3 574.328 37.26C578.182 35.22 581.752 32.8967 585.038 30.29C586.285 29.3833 587.248 28.08 587.928 26.38C588.608 24.5667 588.948 22.8667 588.948 21.28C588.948 17.9933 587.702 15.16 585.208 12.78C582.828 10.4 579.995 9.20999 576.708 9.20999C574.442 9.20999 572.458 9.71999 570.758 10.74C569.058 11.6467 567.585 13.0067 566.338 14.82C567.472 14.3667 568.492 14.14 569.398 14.14C571.325 14.14 573.025 14.82 574.498 16.18C575.972 17.54 576.708 19.24 576.708 21.28C576.708 23.32 575.972 25.0767 574.498 26.55C573.138 27.91 571.438 28.59 569.398 28.59C567.245 28.59 565.488 27.8533 564.128 26.38C562.882 24.7933 562.258 22.98 562.258 20.94C562.258 19.0133 562.655 17.2 563.448 15.5C564.242 13.8 565.262 12.3267 566.508 11.08C567.868 9.83333 569.398 8.86999 571.098 8.19C572.798 7.39666 574.612 6.99999 576.538 6.99999C579.032 6.99999 581.355 7.56666 583.508 8.69999C585.775 9.83333 587.532 11.4767 588.778 13.63V6.99999H602.208ZM588.778 29.1C587.305 31.3667 585.322 33.2933 582.828 34.88C580.335 36.4667 577.955 37.8833 575.688 39.13V73.64H588.778V29.1Z" fill="black"/>
<path d="M658.639 128.38C657.732 129.287 656.826 130.137 655.919 130.93C655.012 131.723 654.106 132.573 653.199 133.48C652.972 133.707 652.576 133.82 652.009 133.82C651.556 133.933 651.216 133.99 650.989 133.99C649.742 133.99 648.666 133.48 647.759 132.46C646.852 131.553 646.399 130.477 646.399 129.23C646.399 127.983 646.852 126.907 647.759 126C648.779 125.093 649.912 124.64 651.159 124.64C652.632 124.64 653.822 125.263 654.729 126.51L655.579 125.32C652.632 121.127 649.912 117.16 647.419 113.42C645.039 109.567 642.942 105.543 641.129 101.35C637.842 93.0767 635.406 84.69 633.819 76.19C632.232 67.5767 631.779 59.19 632.459 51.03C633.139 42.7567 635.066 34.8233 638.239 27.23C641.412 19.6367 646.059 12.5533 652.179 5.97999C653.086 5.07333 653.936 4.22333 654.729 3.43C655.636 2.63666 656.542 1.78666 657.449 0.879989C657.676 0.653325 658.016 0.539993 658.469 0.539993C658.922 0.426661 659.262 0.369995 659.489 0.369995C660.849 0.369995 661.982 0.82333 662.889 1.73C663.796 2.52333 664.249 3.59999 664.249 4.96C664.249 6.20666 663.796 7.33999 662.889 8.35999C661.982 9.26666 660.849 9.72 659.489 9.72C658.016 9.72 656.826 9.09666 655.919 7.84999L654.899 9.20999C658.186 13.7433 660.962 17.88 663.229 21.62C665.609 25.36 667.706 29.2133 669.519 33.18C673.259 41.5667 675.922 50.0667 677.509 58.68C679.209 67.18 679.662 75.5667 678.869 83.84C678.076 92 675.979 99.8767 672.579 107.47C669.292 115.063 664.646 122.033 658.639 128.38ZM650.139 18.39C646.399 27.7967 644.189 36.6933 643.509 45.08C642.942 53.4667 643.339 61.6267 644.699 69.56C646.172 77.4933 648.439 85.2567 651.499 92.85C654.559 100.443 657.959 108.093 661.699 115.8C664.646 107.527 666.289 99.1967 666.629 90.81C666.969 82.4233 666.402 74.15 664.929 65.99C663.569 57.7167 661.529 49.6133 658.809 41.68C656.202 33.6333 653.312 25.87 650.139 18.39Z" fill="black"/>
</svg>
