<svg width="667" height="121" viewBox="0 0 667 121" fill="none" xmlns="http://www.w3.org/2000/svg">
<path d="M44.8945 50.6L38.5945 60.5L32.3945 70.4L12.9945 101.1L0.394459 120.9H23.8945H100.094V101.1H36.3945L55.7945 70.4L62.0945 60.5L68.2945 50.6L87.6945 20L100.294 0.200008H76.8945H0.594459V20H64.2945L44.8945 50.6ZM167.577 101.1H102.577V70.4H167.577V50.6H102.577V20H167.577V0.200008H82.7773V20V50.6V70.4V101.1V120.9H167.577V101.1ZM169.821 120.9V75.9H189.521L224.521 120.9H249.721L214.521 75.8C234.121 74.3 249.721 57.9 249.721 38C249.721 17.3 232.721 0.200008 211.921 0.200008H169.821H150.121V75.9V120.9H169.821ZM169.821 56.1V20H211.921C221.721 20 229.921 28.1 229.921 38C229.921 47.9 221.821 56.1 211.921 56.1H199.121H188.821H169.821ZM292.511 0.200008H296.911C330.111 0.200008 357.211 27.3 357.211 60.5C357.211 93.7 330.111 120.9 296.911 120.9H292.511C259.311 120.9 232.211 93.7 232.211 60.5C232.211 27.3 259.311 0.200008 292.511 0.200008ZM292.511 20C270.211 20 251.911 38.2 251.911 60.5C251.911 82.8 270.211 101.1 292.511 101.1H296.911C319.211 101.1 337.411 82.8 337.411 60.5C337.411 38.2 319.211 20 296.911 20H292.511ZM377.152 0.200008H430.952C460.652 0.200008 484.752 24.5 484.752 54.1V67C484.752 96.6 460.652 120.9 430.952 120.9H377.152V0.200008ZM396.952 20V101.1H430.952C449.652 101.1 464.952 85.7 464.952 67V54.1C464.952 35.4 449.652 20 430.952 20H396.952ZM562.562 120.9H571.162L562.562 103.2L560.362 98.5L550.662 78.7L523.662 23L512.762 0.200008L501.762 23L474.762 78.7L465.162 98.5L462.862 103.2L454.262 120.9H462.862H476.362L487.162 98.5H538.362L549.062 120.9H562.562ZM512.762 45.6L528.762 78.7H496.662L512.762 45.6ZM601.925 0.200008H606.325C639.525 0.200008 666.625 27.3 666.625 60.5C666.625 93.7 639.525 120.9 606.325 120.9H601.925C568.725 120.9 541.625 93.7 541.625 60.5C541.625 27.3 568.725 0.200008 601.925 0.200008ZM601.925 20C579.625 20 561.325 38.2 561.325 60.5C561.325 82.8 579.625 101.1 601.925 101.1H606.325C628.625 101.1 646.825 82.8 646.825 60.5C646.825 38.2 628.625 20 606.325 20H601.925Z" fill="white"/>
<path d="M44.8945 50.6L45.7381 51.1369L45.739 51.1355L44.8945 50.6ZM38.5945 60.5L37.7508 59.9631L37.747 59.9693L38.5945 60.5ZM32.3945 70.4L33.2398 70.9342L33.242 70.9308L32.3945 70.4ZM12.9945 101.1L13.8381 101.637L13.8398 101.634L12.9945 101.1ZM0.394459 120.9L-0.449203 120.363L-1.42721 121.9H0.394459V120.9ZM100.094 120.9V121.9H101.094V120.9H100.094ZM100.094 101.1H101.094V100.1H100.094V101.1ZM36.3945 101.1L35.5491 100.566L34.5796 102.1H36.3945V101.1ZM55.7945 70.4L54.9508 69.8631L54.9491 69.8658L55.7945 70.4ZM62.0945 60.5L62.9382 61.0369L62.942 61.0308L62.0945 60.5ZM68.2945 50.6L67.4499 50.0646L67.447 50.0693L68.2945 50.6ZM87.6945 20L86.8508 19.4631L86.8499 19.4646L87.6945 20ZM100.294 0.200008L101.138 0.736883L102.116 -0.799993H100.294V0.200008ZM0.594459 0.200008V-0.799993H-0.405541V0.200008H0.594459ZM0.594459 20H-0.405541V21H0.594459V20ZM64.2945 20L65.139 20.5355L66.1125 19H64.2945V20ZM44.0508 50.0631L37.7508 59.9631L39.4381 61.0369L45.7381 51.1369L44.0508 50.0631ZM37.747 59.9693L31.547 69.8693L33.242 70.9308L39.442 61.0308L37.747 59.9693ZM31.5491 69.8658L12.1491 100.566L13.8398 101.634L33.2398 70.9342L31.5491 69.8658ZM12.1508 100.563L-0.449203 120.363L1.23812 121.437L13.8381 101.637L12.1508 100.563ZM0.394459 121.9H23.8945V119.9H0.394459V121.9ZM23.8945 121.9H100.094V119.9H23.8945V121.9ZM101.094 120.9V101.1H99.0945V120.9H101.094ZM100.094 100.1H36.3945V102.1H100.094V100.1ZM37.2398 101.634L56.6398 70.9342L54.9491 69.8658L35.5491 100.566L37.2398 101.634ZM56.6381 70.9369L62.9381 61.0369L61.2508 59.9631L54.9508 69.8632L56.6381 70.9369ZM62.942 61.0308L69.142 51.1308L67.447 50.0693L61.247 59.9693L62.942 61.0308ZM69.1391 51.1355L88.5391 20.5355L86.8499 19.4646L67.4499 50.0646L69.1391 51.1355ZM88.5381 20.5369L101.138 0.736883L99.4508 -0.336868L86.8508 19.4631L88.5381 20.5369ZM100.294 -0.799993H76.8945V1.20001H100.294V-0.799993ZM76.8945 -0.799993H0.594459V1.20001H76.8945V-0.799993ZM-0.405541 0.200008V20H1.59446V0.200008H-0.405541ZM0.594459 21H64.2945V19H0.594459V21ZM63.4499 19.4646L44.0499 50.0646L45.739 51.1355L65.139 20.5355L63.4499 19.4646ZM167.577 101.1H168.577V100.1H167.577V101.1ZM102.577 101.1H101.577V102.1H102.577V101.1ZM102.577 70.4V69.4H101.577V70.4H102.577ZM167.577 70.4V71.4H168.577V70.4H167.577ZM167.577 50.6H168.577V49.6H167.577V50.6ZM102.577 50.6H101.577V51.6H102.577V50.6ZM102.577 20V19H101.577V20H102.577ZM167.577 20V21H168.577V20H167.577ZM167.577 0.200008H168.577V-0.799993H167.577V0.200008ZM82.7773 0.200008V-0.799993H81.7773V0.200008H82.7773ZM82.7773 120.9H81.7773V121.9H82.7773V120.9ZM167.577 120.9V121.9H168.577V120.9H167.577ZM167.577 100.1H102.577V102.1H167.577V100.1ZM103.577 101.1V70.4H101.577V101.1H103.577ZM102.577 71.4H167.577V69.4H102.577V71.4ZM168.577 70.4V50.6H166.577V70.4H168.577ZM167.577 49.6H102.577V51.6H167.577V49.6ZM103.577 50.6V20H101.577V50.6H103.577ZM102.577 21H167.577V19H102.577V21ZM168.577 20V0.200008H166.577V20H168.577ZM167.577 -0.799993H82.7773V1.20001H167.577V-0.799993ZM81.7773 0.200008V20H83.7773V0.200008H81.7773ZM81.7773 20V50.6H83.7773V20H81.7773ZM81.7773 50.6V70.4H83.7773V50.6H81.7773ZM81.7773 70.4V101.1H83.7773V70.4H81.7773ZM81.7773 101.1V120.9H83.7773V101.1H81.7773ZM82.7773 121.9H167.577V119.9H82.7773V121.9ZM168.577 120.9V101.1H166.577V120.9H168.577ZM169.821 120.9V121.9H170.821V120.9H169.821ZM169.821 75.9V74.9H168.821V75.9H169.821ZM189.521 75.9L190.31 75.2861L190.01 74.9H189.521V75.9ZM224.521 120.9L223.732 121.514L224.032 121.9H224.521V120.9ZM249.721 120.9V121.9H251.77L250.509 120.285L249.721 120.9ZM214.521 75.8L214.445 74.8029L212.585 74.9452L213.733 76.4153L214.521 75.8ZM150.121 0.200008V-0.799993H149.121V0.200008H150.121ZM150.121 120.9H149.121V121.9H150.121V120.9ZM169.821 56.1H168.821V57.1H169.821V56.1ZM169.821 20V19H168.821V20H169.821ZM170.821 120.9V75.9H168.821V120.9H170.821ZM169.821 76.9H189.521V74.9H169.821V76.9ZM188.732 76.514L223.732 121.514L225.31 120.286L190.31 75.2861L188.732 76.514ZM224.521 121.9H249.721V119.9H224.521V121.9ZM250.509 120.285L215.309 75.1848L213.733 76.4153L248.933 121.515L250.509 120.285ZM214.597 76.7971C234.708 75.258 250.721 58.4333 250.721 38H248.721C248.721 57.3668 233.534 73.342 214.445 74.8029L214.597 76.7971ZM250.721 38C250.721 16.7494 233.275 -0.799993 211.921 -0.799993V1.20001C232.167 1.20001 248.721 17.8506 248.721 38H250.721ZM211.921 -0.799993H169.821V1.20001H211.921V-0.799993ZM169.821 -0.799993H150.121V1.20001H169.821V-0.799993ZM149.121 0.200008V75.9H151.121V0.200008H149.121ZM149.121 75.9V120.9H151.121V75.9H149.121ZM150.121 121.9H169.821V119.9H150.121V121.9ZM170.821 56.1V20H168.821V56.1H170.821ZM169.821 21H211.921V19H169.821V21ZM211.921 21C221.172 21 228.921 28.6559 228.921 38H230.921C230.921 27.5441 222.27 19 211.921 19V21ZM228.921 38C228.921 47.3549 221.262 55.1 211.921 55.1V57.1C222.381 57.1 230.921 48.4451 230.921 38H228.921ZM211.921 55.1H199.121V57.1H211.921V55.1ZM199.121 55.1H188.821V57.1H199.121V55.1ZM188.821 55.1H169.821V57.1H188.821V55.1ZM292.511 1.20001H296.911V-0.799993H292.511V1.20001ZM296.911 1.20001C329.559 1.20001 356.211 27.8523 356.211 60.5H358.211C358.211 26.7477 330.663 -0.799993 296.911 -0.799993V1.20001ZM356.211 60.5C356.211 93.1499 329.557 119.9 296.911 119.9V121.9C330.665 121.9 358.211 94.2502 358.211 60.5H356.211ZM296.911 119.9H292.511V121.9H296.911V119.9ZM292.511 119.9C259.865 119.9 233.211 93.1499 233.211 60.5H231.211C231.211 94.2502 258.756 121.9 292.511 121.9V119.9ZM233.211 60.5C233.211 27.8523 259.863 1.20001 292.511 1.20001V-0.799993C258.759 -0.799993 231.211 26.7477 231.211 60.5H233.211ZM292.511 19C269.662 19 250.911 37.6445 250.911 60.5H252.911C252.911 38.7555 270.76 21 292.511 21V19ZM250.911 60.5C250.911 83.3523 269.659 102.1 292.511 102.1V100.1C270.763 100.1 252.911 82.2477 252.911 60.5H250.911ZM292.511 102.1H296.911V100.1H292.511V102.1ZM296.911 102.1C319.766 102.1 338.411 83.3491 338.411 60.5H336.411C336.411 82.251 318.655 100.1 296.911 100.1V102.1ZM338.411 60.5C338.411 37.6477 319.763 19 296.911 19V21C318.659 21 336.411 38.7523 336.411 60.5H338.411ZM296.911 19H292.511V21H296.911V19ZM377.152 0.200008V-0.799993H376.152V0.200008H377.152ZM377.152 120.9H376.152V121.9H377.152V120.9ZM396.952 20V19H395.952V20H396.952ZM396.952 101.1H395.952V102.1H396.952V101.1ZM377.152 1.20001H430.952V-0.799993H377.152V1.20001ZM430.952 1.20001C460.096 1.20001 483.752 25.0487 483.752 54.1H485.752C485.752 23.9514 461.208 -0.799993 430.952 -0.799993V1.20001ZM483.752 54.1V67H485.752V54.1H483.752ZM483.752 67C483.752 96.0514 460.096 119.9 430.952 119.9V121.9C461.208 121.9 485.752 97.1487 485.752 67H483.752ZM430.952 119.9H377.152V121.9H430.952V119.9ZM378.152 120.9V0.200008H376.152V120.9H378.152ZM395.952 20V101.1H397.952V20H395.952ZM396.952 102.1H430.952V100.1H396.952V102.1ZM430.952 102.1C450.208 102.1 465.952 86.2485 465.952 67H463.952C463.952 85.1516 449.096 100.1 430.952 100.1V102.1ZM465.952 67V54.1H463.952V67H465.952ZM465.952 54.1C465.952 34.8516 450.208 19 430.952 19V21C449.096 21 463.952 35.9485 463.952 54.1H465.952ZM430.952 19H396.952V21H430.952V19ZM571.162 120.9V121.9H572.759L572.061 120.463L571.162 120.9ZM562.562 103.2L561.656 103.624L561.659 103.631L561.662 103.637L562.562 103.2ZM560.362 98.5L561.267 98.0761L561.264 98.0681L561.26 98.0601L560.362 98.5ZM550.662 78.7L549.762 79.1362L549.764 79.14L550.662 78.7ZM523.662 23L522.76 23.4313L522.762 23.4362L523.662 23ZM512.762 0.200008L513.664 -0.231308L512.766 -2.10987L511.861 -0.234521L512.762 0.200008ZM501.762 23L502.662 23.4362L502.662 23.4345L501.762 23ZM474.762 78.7L475.662 79.1363L475.662 79.1362L474.762 78.7ZM465.162 98.5L466.06 98.9396L466.062 98.9363L465.162 98.5ZM462.862 103.2L461.964 102.76L461.962 102.763L462.862 103.2ZM454.262 120.9L453.362 120.463L452.664 121.9H454.262V120.9ZM476.362 120.9V121.9H476.99L477.262 121.334L476.362 120.9ZM487.162 98.5V97.5H486.534L486.261 98.0657L487.162 98.5ZM538.362 98.5L539.264 98.069L538.992 97.5H538.362V98.5ZM549.062 120.9L548.159 121.331L548.431 121.9H549.062V120.9ZM512.762 45.6L513.662 45.1648L512.765 43.3081L511.862 45.1626L512.762 45.6ZM528.762 78.7V79.7H530.356L529.662 78.2648L528.762 78.7ZM496.662 78.7L495.762 78.2626L495.063 79.7H496.662V78.7ZM562.562 121.9H571.162V119.9H562.562V121.9ZM572.061 120.463L563.461 102.763L561.662 103.637L570.262 121.337L572.061 120.463ZM563.467 102.776L561.267 98.0761L559.456 98.924L561.656 103.624L563.467 102.776ZM561.26 98.0601L551.56 78.2601L549.764 79.14L559.464 98.94L561.26 98.0601ZM551.562 78.2638L524.562 22.5638L522.762 23.4362L549.762 79.1362L551.562 78.2638ZM524.564 22.5687L513.664 -0.231308L511.86 0.631323L522.76 23.4313L524.564 22.5687ZM511.861 -0.234521L500.861 22.5655L502.662 23.4345L513.662 0.634536L511.861 -0.234521ZM500.862 22.5638L473.862 78.2638L475.662 79.1362L502.662 23.4362L500.862 22.5638ZM473.862 78.2638L464.262 98.0638L466.062 98.9363L475.662 79.1363L473.862 78.2638ZM464.264 98.0605L461.964 102.76L463.76 103.64L466.06 98.9396L464.264 98.0605ZM461.962 102.763L453.362 120.463L455.161 121.337L463.761 103.637L461.962 102.763ZM454.262 121.9H462.862V119.9H454.262V121.9ZM462.862 121.9H476.362V119.9H462.862V121.9ZM477.262 121.334L488.063 98.9343L486.261 98.0657L475.461 120.466L477.262 121.334ZM487.162 99.5H538.362V97.5H487.162V99.5ZM537.459 98.9311L548.159 121.331L549.964 120.469L539.264 98.069L537.459 98.9311ZM549.062 121.9H562.562V119.9H549.062V121.9ZM511.861 46.0352L527.861 79.1352L529.662 78.2648L513.662 45.1648L511.861 46.0352ZM528.762 77.7H496.662V79.7H528.762V77.7ZM497.561 79.1374L513.661 46.0374L511.862 45.1626L495.762 78.2626L497.561 79.1374ZM601.925 1.20001H606.325V-0.799993H601.925V1.20001ZM606.325 1.20001C638.973 1.20001 665.625 27.8523 665.625 60.5H667.625C667.625 26.7477 640.077 -0.799993 606.325 -0.799993V1.20001ZM665.625 60.5C665.625 93.1499 638.971 119.9 606.325 119.9V121.9C640.079 121.9 667.625 94.2502 667.625 60.5H665.625ZM606.325 119.9H601.925V121.9H606.325V119.9ZM601.925 119.9C569.279 119.9 542.625 93.1499 542.625 60.5H540.625C540.625 94.2502 568.171 121.9 601.925 121.9V119.9ZM542.625 60.5C542.625 27.8523 569.277 1.20001 601.925 1.20001V-0.799993C568.173 -0.799993 540.625 26.7477 540.625 60.5H542.625ZM601.925 19C579.076 19 560.325 37.6445 560.325 60.5H562.325C562.325 38.7555 580.174 21 601.925 21V19ZM560.325 60.5C560.325 83.3523 579.073 102.1 601.925 102.1V100.1C580.177 100.1 562.325 82.2477 562.325 60.5H560.325ZM601.925 102.1H606.325V100.1H601.925V102.1ZM606.325 102.1C629.181 102.1 647.825 83.3491 647.825 60.5H645.825C645.825 82.251 628.07 100.1 606.325 100.1V102.1ZM647.825 60.5C647.825 37.6477 629.177 19 606.325 19V21C628.073 21 645.825 38.7523 645.825 60.5H647.825ZM606.325 19H601.925V21H606.325V19Z" fill="#29302A"/>
</svg>
